<svg xmlns="http://www.w3.org/2000/svg" viewBox="0 0 750 500"><g id="freepik--background-complete--inject-25"><polygon points="593.99 96.07 594.86 97.83 596.8 98.11 595.39 99.48 595.73 101.42 593.99 100.5 592.25 101.42 592.58 99.48 591.18 98.11 593.12 97.83 593.99 96.07" style="fill:#dbdbdb"></polygon><polygon points="509.92 77 511.01 79.21 513.45 79.56 511.68 81.28 512.1 83.71 509.92 82.57 507.74 83.71 508.15 81.28 506.38 79.56 508.83 79.21 509.92 77" style="fill:#dbdbdb"></polygon><polygon points="90.14 223.89 91.23 226.1 93.67 226.45 91.91 228.17 92.32 230.6 90.14 229.46 87.96 230.6 88.38 228.17 86.61 226.45 89.05 226.1 90.14 223.89" style="fill:#dbdbdb"></polygon><polygon points="679 65.96 680.1 68.17 682.54 68.53 680.77 70.25 681.19 72.68 679 71.53 676.82 72.68 677.24 70.25 675.47 68.53 677.91 68.17 679 65.96" style="fill:#dbdbdb"></polygon><polygon points="271.95 138.34 273.05 140.55 275.49 140.91 273.72 142.63 274.14 145.06 271.95 143.91 269.77 145.06 270.19 142.63 268.42 140.91 270.86 140.55 271.95 138.34" style="fill:#dbdbdb"></polygon><polygon points="366.46 116.3 367.55 118.51 369.99 118.87 368.22 120.59 368.64 123.02 366.46 121.87 364.27 123.02 364.69 120.59 362.93 118.87 365.37 118.51 366.46 116.3" style="fill:#dbdbdb"></polygon><polygon points="591.18 209.06 592.27 211.28 594.71 211.63 592.94 213.35 593.36 215.78 591.18 214.63 588.99 215.78 589.41 213.35 587.64 211.63 590.09 211.28 591.18 209.06" style="fill:#dbdbdb"></polygon><polygon points="489.87 173.7 490.96 175.91 493.4 176.27 491.64 177.99 492.05 180.42 489.87 179.27 487.69 180.42 488.11 177.99 486.34 176.27 488.78 175.91 489.87 173.7" style="fill:#dbdbdb"></polygon><polygon points="554.75 167.5 555.62 169.26 557.57 169.54 556.16 170.91 556.49 172.85 554.75 171.94 553.02 172.85 553.35 170.91 551.94 169.54 553.89 169.26 554.75 167.5" style="fill:#dbdbdb"></polygon><polygon points="215.24 197.62 216.11 199.38 218.05 199.66 216.64 201.03 216.98 202.97 215.24 202.05 213.5 202.97 213.83 201.03 212.43 199.66 214.37 199.38 215.24 197.62" style="fill:#dbdbdb"></polygon><polygon points="668.49 133.15 669.36 134.91 671.3 135.19 669.89 136.56 670.22 138.49 668.49 137.58 666.75 138.49 667.08 136.56 665.67 135.19 667.62 134.91 668.49 133.15" style="fill:#dbdbdb"></polygon><polygon points="406.3 150.55 407.17 152.31 409.11 152.59 407.7 153.96 408.04 155.9 406.3 154.98 404.56 155.9 404.89 153.96 403.49 152.59 405.43 152.31 406.3 150.55" style="fill:#dbdbdb"></polygon><polygon points="212.43 114.31 213.29 116.07 215.24 116.35 213.83 117.72 214.16 119.66 212.43 118.75 210.69 119.66 211.02 117.72 209.61 116.35 211.56 116.07 212.43 114.31" style="fill:#dbdbdb"></polygon><polygon points="148.85 58.01 149.39 59.1 150.59 59.27 149.72 60.12 149.92 61.31 148.85 60.75 147.78 61.31 147.98 60.12 147.11 59.27 148.31 59.1 148.85 58.01" style="fill:#dbdbdb"></polygon><polygon points="221.86 123.74 222.4 124.83 223.6 125.01 222.73 125.85 222.93 127.05 221.86 126.48 220.79 127.05 220.99 125.85 220.12 125.01 221.32 124.83 221.86 123.74" style="fill:#dbdbdb"></polygon><polygon points="70.16 175.41 70.7 176.5 71.9 176.67 71.03 177.52 71.23 178.72 70.16 178.15 69.08 178.72 69.29 177.52 68.42 176.67 69.62 176.5 70.16 175.41" style="fill:#dbdbdb"></polygon><polygon points="660.01 208.34 660.55 209.43 661.75 209.6 660.88 210.45 661.09 211.64 660.01 211.08 658.94 211.64 659.15 210.45 658.28 209.6 659.48 209.43 660.01 208.34" style="fill:#dbdbdb"></polygon><polygon points="483.09 120.5 483.63 121.59 484.83 121.76 483.96 122.61 484.16 123.81 483.09 123.24 482.02 123.81 482.22 122.61 481.35 121.76 482.55 121.59 483.09 120.5" style="fill:#dbdbdb"></polygon><polygon points="286.59 175.41 287.12 176.5 288.32 176.67 287.46 177.52 287.66 178.72 286.59 178.15 285.51 178.72 285.72 177.52 284.85 176.67 286.05 176.5 286.59 175.41" style="fill:#dbdbdb"></polygon><polygon points="647.42 125.4 647.95 126.48 649.15 126.66 648.28 127.51 648.49 128.7 647.42 128.14 646.34 128.7 646.55 127.51 645.68 126.66 646.88 126.48 647.42 125.4" style="fill:#dbdbdb"></polygon><polygon points="658.28 170.07 658.82 171.16 660.01 171.33 659.15 172.18 659.35 173.38 658.28 172.81 657.2 173.38 657.41 172.18 656.54 171.33 657.74 171.16 658.28 170.07" style="fill:#dbdbdb"></polygon><polygon points="390.09 154.24 390.62 155.33 391.82 155.5 390.96 156.35 391.16 157.55 390.09 156.98 389.01 157.55 389.22 156.35 388.35 155.5 389.55 155.33 390.09 154.24" style="fill:#dbdbdb"></polygon><polygon points="349.77 131.49 350.31 132.58 351.51 132.75 350.64 133.6 350.85 134.8 349.77 134.23 348.7 134.8 348.91 133.6 348.04 132.75 349.24 132.58 349.77 131.49" style="fill:#dbdbdb"></polygon><polygon points="154.43 125.4 154.97 126.48 156.17 126.66 155.3 127.51 155.51 128.7 154.43 128.14 153.36 128.7 153.56 127.51 152.7 126.66 153.9 126.48 154.43 125.4" style="fill:#dbdbdb"></polygon><polygon points="80.44 110.96 80.98 112.05 82.18 112.23 81.31 113.07 81.51 114.27 80.44 113.7 79.37 114.27 79.57 113.07 78.7 112.23 79.9 112.05 80.44 110.96" style="fill:#dbdbdb"></polygon><path d="M153.29,86.77A29.09,29.09,0,1,1,121.6,43.94a27.21,27.21,0,1,0,31.69,42.83Z" style="fill:#dbdbdb"></path><path d="M486.26,105.28H167.44s31.61-50.22,80.26-50.22,63.89,34.66,63.89,34.66,32.82-18.83,59.79-18.83,50.41,24.88,50.41,24.88S459.88,82.39,486.26,105.28Z" style="fill:#ebebeb"></path><path d="M203.85,150.21h-149s33.3-28.06,59.53-28.06,34,18.71,34,18.71,18.51-8.73,35.66-7.17S203.85,150.21,203.85,150.21Z" style="fill:#ebebeb"></path><path d="M695.15,162.22h-149s33.29-28.06,59.52-28.06,34,18.71,34,18.71,18.51-8.73,35.67-7.17S695.15,162.22,695.15,162.22Z" style="fill:#ebebeb"></path><path d="M351.51,227.24H234.89S261,211,281.48,211s26.6,10.84,26.6,10.84,14.49-5.06,27.91-4.16S351.51,227.24,351.51,227.24Z" style="fill:#ebebeb"></path><path d="M259.85,266.74h-149S144.15,246,170.38,246s34,13.85,34,13.85,18.51-6.46,35.66-5.31S259.85,266.74,259.85,266.74Z" style="fill:#ebebeb"></path><path d="M203.85,362.52h-149s33.3-20.76,59.53-20.76,34,13.84,34,13.84,18.51-6.46,35.66-5.3S203.85,362.52,203.85,362.52Z" style="fill:#ebebeb"></path><path d="M669.44,334.15h-149s33.29-20.76,59.52-20.76,34,13.84,34,13.84,18.51-6.46,35.66-5.3S669.44,334.15,669.44,334.15Z" style="fill:#ebebeb"></path></g><g id="freepik--Sun--inject-25"><g style="opacity:0.2"><path d="M510.05,371.82c0,1.32,0,2.66-.07,4H240c-.05-1.31-.07-2.65-.07-4a135.05,135.05,0,0,1,270.1,0Z" style="fill:#636FA4"></path></g><path d="M501.08,372.08c0,1.24,0,2.49-.07,3.71H249c-.05-1.22-.07-2.47-.07-3.71a126.08,126.08,0,0,1,252.16,0Z" style="fill:#636FA4"></path><g style="opacity:0.4"><path d="M501.08,372.08c0,1.24,0,2.49-.07,3.71H249c-.05-1.22-.07-2.47-.07-3.71a126.08,126.08,0,0,1,252.16,0Z" style="fill:#fff"></path></g><polygon points="495.98 341.64 500.16 342.41 501.09 346.81 502.02 342.41 506.2 341.64 502.04 340.62 501.09 336.46 500.14 340.62 495.98 341.64" style="fill:#fff"></polygon><polygon points="277.83 294.11 282.01 294.88 282.94 299.28 283.87 294.88 288.05 294.1 283.89 293.09 282.94 288.93 281.99 293.09 277.83 294.11" style="fill:#fff"></polygon><path d="M354.54,251.16a.43.43,0,0,1,0,.86A.43.43,0,0,1,354.54,251.16Z" style="fill:#fff"></path><path d="M480,303.48a.43.43,0,0,1,0,.86A.43.43,0,0,1,480,303.48Z" style="fill:#fff"></path><path d="M318.88,360.5a.43.43,0,0,1,0,.86A.43.43,0,0,1,318.88,360.5Z" style="fill:#fff"></path><path d="M398.52,334.11a.44.44,0,0,1,0,.87A.44.44,0,0,1,398.52,334.11Z" style="fill:#fff"></path><path d="M271.54,310.47a.43.43,0,0,1,0,.86A.43.43,0,0,1,271.54,310.47Z" style="fill:#fff"></path><path d="M292.66,312.28a.43.43,0,0,1,0,.86A.43.43,0,0,1,292.66,312.28Z" style="fill:#fff"></path><path d="M469.4,355.93a.83.83,0,0,1,0,1.65A.83.83,0,0,1,469.4,355.93Z" style="fill:#fff"></path><path d="M423.29,287.83a.83.83,0,0,1,0,1.65A.83.83,0,0,1,423.29,287.83Z" style="fill:#fff"></path><polygon points="479.84 325.2 482.5 325.69 483.09 328.49 483.68 325.69 486.34 325.2 483.69 324.55 483.09 321.91 482.49 324.55 479.84 325.2" style="fill:#fff"></polygon><polygon points="415.35 261.88 418.01 262.37 418.6 265.17 419.2 262.37 421.85 261.88 419.21 261.23 418.6 258.59 418 261.23 415.35 261.88" style="fill:#fff"></polygon><polygon points="242.7 359.1 244.19 359.37 244.52 360.93 244.85 359.37 246.34 359.09 244.86 358.73 244.52 357.26 244.18 358.73 242.7 359.1" style="fill:#fff"></polygon><path d="M415.58,316.87a.83.83,0,0,1,0,1.65A.83.83,0,0,1,415.58,316.87Z" style="fill:#fff"></path><polygon points="375.83 281.79 377.31 282.06 377.64 283.62 377.98 282.06 379.46 281.78 377.98 281.42 377.64 279.95 377.31 281.42 375.83 281.79" style="fill:#fff"></polygon><polygon points="503.66 354.71 505.15 354.99 505.48 356.55 505.81 354.99 507.3 354.71 505.82 354.35 505.48 352.88 505.14 354.35 503.66 354.71" style="fill:#fff"></polygon><polygon points="277.88 328.11 279.36 328.38 279.69 329.95 280.02 328.38 281.51 328.11 280.03 327.75 279.69 326.27 279.35 327.75 277.88 328.11" style="fill:#fff"></polygon><path d="M366.46,288.73s198.38.5,271.92-2.92c0,0-137.22,11.73-181.91,10.64S366.46,288.73,366.46,288.73Z" style="fill:#636FA4"></path><path d="M366.46,288.73s198.38.5,271.92-2.92c0,0-137.22,11.73-181.91,10.64S366.46,288.73,366.46,288.73Z" style="fill:#fff;opacity:0.7000000000000001"></path><path d="M381.36,320.65s-197.57.89-270.51-2.54c0,0,126.58,9.44,170.91,8.36S381.36,320.65,381.36,320.65Z" style="fill:#636FA4"></path><path d="M381.36,320.65s-197.57.89-270.51-2.54c0,0,126.58,9.44,170.91,8.36S381.36,320.65,381.36,320.65Z" style="fill:#fff;opacity:0.7000000000000001"></path><path d="M315.08,342.4s119,1.84,163.06.12c0,0-69.54,6.8-96.35,6.26S315.08,342.4,315.08,342.4Z" style="fill:#636FA4"></path><path d="M315.08,342.4s119,1.84,163.06.12c0,0-69.54,6.8-96.35,6.26S315.08,342.4,315.08,342.4Z" style="fill:#fff;opacity:0.7000000000000001"></path><path d="M458.66,306s63.85,1.39,87.52.09c0,0-37.33,5.16-51.71,4.75S458.66,306,458.66,306Z" style="fill:#636FA4"></path><path d="M458.66,306s63.85,1.39,87.52.09c0,0-37.33,5.16-51.71,4.75S458.66,306,458.66,306Z" style="fill:#fff;opacity:0.7000000000000001"></path><path d="M578,321.59s81.67,2.23,111.95.15c0,0-34.18,8.26-52.58,7.6S578,321.59,578,321.59Z" style="fill:#636FA4"></path><path d="M578,321.59s81.67,2.23,111.95.15c0,0-34.18,8.26-52.58,7.6S578,321.59,578,321.59Z" style="fill:#fff;opacity:0.7000000000000001"></path><path d="M283.5,260.5s63.85,1.39,87.52.09c0,0-37.33,5.16-51.71,4.75S283.5,260.5,283.5,260.5Z" style="fill:#636FA4"></path><path d="M283.5,260.5s63.85,1.39,87.52.09c0,0-37.33,5.16-51.71,4.75S283.5,260.5,283.5,260.5Z" style="fill:#fff;opacity:0.7000000000000001"></path><path d="M341.94,192.49S598.05,193,693,189.58c0,0-177.14,11.73-234.85,10.64S341.94,192.49,341.94,192.49Z" style="fill:#636FA4"></path><path d="M341.94,192.49S598.05,193,693,189.58c0,0-177.14,11.73-234.85,10.64S341.94,192.49,341.94,192.49Z" style="fill:#fff;opacity:0.7000000000000001"></path><path d="M357.11,165.82s-197.57.88-270.5-2.54c0,0,126.57,9.44,170.9,8.36S357.11,165.82,357.11,165.82Z" style="fill:#636FA4"></path><path d="M357.11,165.82s-197.57.88-270.5-2.54c0,0,126.57,9.44,170.9,8.36S357.11,165.82,357.11,165.82Z" style="fill:#fff;opacity:0.7000000000000001"></path><path d="M388.67,135.29s119,1.84,163.06.13c0,0-69.54,6.79-96.35,6.25S388.67,135.29,388.67,135.29Z" style="fill:#636FA4"></path><path d="M388.67,135.29s119,1.84,163.06.13c0,0-69.54,6.79-96.35,6.25S388.67,135.29,388.67,135.29Z" style="fill:#fff;opacity:0.7000000000000001"></path><path d="M370.25,207.56s63.85,1.39,87.51.09c0,0-37.32,5.16-51.7,4.75S370.25,207.56,370.25,207.56Z" style="fill:#636FA4"></path><path d="M370.25,207.56s63.85,1.39,87.51.09c0,0-37.32,5.16-51.7,4.75S370.25,207.56,370.25,207.56Z" style="fill:#fff;opacity:0.7000000000000001"></path><path d="M57,196.4s81.67,2.23,112,.15c0,0-34.18,8.26-52.58,7.6S57,196.4,57,196.4Z" style="fill:#636FA4"></path><path d="M57,196.4s81.67,2.23,112,.15c0,0-34.18,8.26-52.58,7.6S57,196.4,57,196.4Z" style="fill:#fff;opacity:0.7000000000000001"></path><path d="M463.54,234.34s63.85,1.4,87.51.1c0,0-37.32,5.15-51.71,4.74S463.54,234.34,463.54,234.34Z" style="fill:#636FA4"></path><path d="M463.54,234.34s63.85,1.4,87.51.1c0,0-37.32,5.15-51.71,4.74S463.54,234.34,463.54,234.34Z" style="fill:#fff;opacity:0.7000000000000001"></path></g><g id="freepik--Birds--inject-25"><path d="M518.26,287.65A25.77,25.77,0,0,0,515,286a14,14,0,0,0-3.57-1.08,3.22,3.22,0,0,0-1.14.05l-.36.14-.23.15-.41.29c-.51.4-1,.82-1.41,1.25-.87.87-1.66,1.78-2.45,2.71l.92-.26a29.07,29.07,0,0,0-3.65-1,15,15,0,0,0-1.93-.26,5.93,5.93,0,0,0-1,0,3.11,3.11,0,0,0-.57.1,3.34,3.34,0,0,0-.57.22,6.54,6.54,0,0,0-1.55,1.31,16.28,16.28,0,0,0-1.19,1.47,23.31,23.31,0,0,0-1.94,3.2c.85-.9,1.68-1.81,2.56-2.66a16.85,16.85,0,0,1,1.33-1.22,5.83,5.83,0,0,1,1.37-.93,3.3,3.3,0,0,1,1.46,0,13.26,13.26,0,0,1,1.71.34c1.15.29,2.32.66,3.44,1l.56.19.36-.45c.73-.91,1.51-1.81,2.29-2.67.39-.42.79-.85,1.2-1.21.11-.08.21-.18.31-.25l.14-.1a.11.11,0,0,1,.05,0,2.15,2.15,0,0,1,.65-.08,17.71,17.71,0,0,1,3.4.56C515.94,287,517.09,287.35,518.26,287.65Z" style="fill:#263238"></path><path d="M495.63,302.79a23.37,23.37,0,0,0-2-2.28,11.64,11.64,0,0,0-2.41-1.94,2.45,2.45,0,0,0-.88-.32,1.66,1.66,0,0,0-.32,0l-.23,0-.4.1a13.56,13.56,0,0,0-1.48.51c-.94.39-1.84.84-2.74,1.31l.79.09a23.19,23.19,0,0,0-2.48-1.93,12.78,12.78,0,0,0-1.4-.81,5.66,5.66,0,0,0-.79-.32,3.25,3.25,0,0,0-.47-.1,4.3,4.3,0,0,0-.51,0,5.19,5.19,0,0,0-1.6.52,13.06,13.06,0,0,0-1.38.75,20.63,20.63,0,0,0-2.5,1.84c.94-.42,1.87-.85,2.81-1.23a14.77,14.77,0,0,1,1.4-.52,5.09,5.09,0,0,1,1.35-.28,2.72,2.72,0,0,1,1.13.43,11,11,0,0,1,1.21.8c.79.58,1.57,1.23,2.31,1.88l.37.33.42-.24c.85-.47,1.73-.91,2.6-1.32a13.21,13.21,0,0,1,1.31-.56l.31-.09.14,0h0a1.62,1.62,0,0,1,.52.14,14.87,14.87,0,0,1,2.44,1.5C494,301.59,494.83,302.2,495.63,302.79Z" style="fill:#263238"></path><path d="M346.12,297.29a34,34,0,0,0-3.72-2.55,17.7,17.7,0,0,0-4.23-1.9,4.1,4.1,0,0,0-1.41-.12,1.85,1.85,0,0,0-.46.12L336,293a5.64,5.64,0,0,0-.55.29,21.27,21.27,0,0,0-1.94,1.32c-1.22.92-2.34,1.91-3.47,2.94l1.18-.17a32.52,32.52,0,0,0-4.34-1.85,18.49,18.49,0,0,0-2.33-.64,8.47,8.47,0,0,0-1.27-.16,5.78,5.78,0,0,0-.71,0,5,5,0,0,0-.74.19,8,8,0,0,0-2.13,1.35c-.61.52-1.17,1.07-1.71,1.63a29.57,29.57,0,0,0-2.91,3.62c1.2-1,2.37-2,3.59-2.86.6-.45,1.21-.9,1.84-1.28a7.77,7.77,0,0,1,1.84-.93,4.44,4.44,0,0,1,1.8.18,19.35,19.35,0,0,1,2.06.71c1.37.54,2.75,1.18,4.07,1.83l.66.33.51-.49c1.05-1,2.16-2,3.26-2.92a19.47,19.47,0,0,1,1.68-1.3,4.78,4.78,0,0,1,.42-.26l.18-.11.08,0a2.4,2.4,0,0,1,.81,0,21.93,21.93,0,0,1,4.1,1.24C343.35,296.16,344.72,296.74,346.12,297.29Z" style="fill:#263238"></path><path d="M252.36,350.37a20.89,20.89,0,0,0-2.53-1.62,11.55,11.55,0,0,0-2.86-1.18,2.42,2.42,0,0,0-.95-.05,1,1,0,0,0-.3.08l-.21.1-.36.21a13.62,13.62,0,0,0-1.26.92c-.8.64-1.52,1.33-2.26,2l.79-.13a23.74,23.74,0,0,0-2.93-1.15,15.62,15.62,0,0,0-1.57-.37,6,6,0,0,0-.86-.08,2.63,2.63,0,0,0-.47,0,3,3,0,0,0-.49.14,5.32,5.32,0,0,0-1.39.95,13,13,0,0,0-1.11,1.12,19.56,19.56,0,0,0-1.86,2.48c.78-.68,1.54-1.36,2.33-2a12.39,12.39,0,0,1,1.2-.89,4.85,4.85,0,0,1,1.21-.66,2.74,2.74,0,0,1,1.21.08,10.92,10.92,0,0,1,1.38.43c.93.33,1.86.73,2.76,1.14l.45.2.33-.34c.68-.69,1.4-1.37,2.11-2,.36-.32.73-.64,1.09-.9a3.16,3.16,0,0,1,.27-.18l.13-.08,0,0a1.51,1.51,0,0,1,.54,0,15.74,15.74,0,0,1,2.76.74C250.49,349.67,251.42,350,252.36,350.37Z" style="fill:#263238"></path><path d="M277,346.37a32.87,32.87,0,0,0-2.8-3.53,17.53,17.53,0,0,0-3.47-3.08,4.07,4.07,0,0,0-1.31-.53,2.37,2.37,0,0,0-.48,0l-.34.05a5.51,5.51,0,0,0-.61.11c-.79.19-1.52.43-2.24.68-1.44.52-2.81,1.14-4.19,1.78l1.18.19a34.93,34.93,0,0,0-3.59-3.06,20.86,20.86,0,0,0-2-1.3,9,9,0,0,0-1.17-.53,3.64,3.64,0,0,0-1.45-.22,8,8,0,0,0-2.43.67,20.84,20.84,0,0,0-2.12,1,29.78,29.78,0,0,0-3.85,2.59c1.43-.57,2.84-1.16,4.28-1.66a21,21,0,0,1,2.13-.68,7.43,7.43,0,0,1,2-.34,4.19,4.19,0,0,1,1.67.71,17.36,17.36,0,0,1,1.75,1.28c1.15.92,2.28,1.95,3.34,3l.54.51.64-.32c1.3-.65,2.65-1.25,4-1.81a16.75,16.75,0,0,1,2-.75,4.64,4.64,0,0,1,.47-.12l.21-.05s0,0,.08,0a2.71,2.71,0,0,1,.77.24,22,22,0,0,1,3.55,2.4C274.71,344.47,275.85,345.43,277,346.37Z" style="fill:#263238"></path></g><g id="freepik--Sea--inject-25"><g style="opacity:0.7000000000000001"><path d="M232.26,375.79s115.63,2.67,115.36,7.35c-.15,2.68-91.78,4.12-91.78,8.35,0,2.44,98.81,3.35,98.81,6,0,1.68-41.67,3.68-41.67,5.41,0,2.62,61.31,3.85,61.71,5.19s-74.05,1.67-74.05,5.68c0,3.46,66.35,2.23,66.35,3.9s-26.94,3.13-26.94,4.8,60.25,2,62.24,3.68S324,428.51,324,430.52s60.11,2.34,60.11,3.9-26,3.94-26,3.94,37-2.16,37-4.28-18.58-2.34-19-2.67S432,428.62,432,425.05s-51.36-4.12-51.36-4.79,47.91-1.9,47.91-4.91-58.79-2.67-58.79-3.34,76.31-3.27,76.31-4.94c0-3.09-61-3.76-61-5.32,0-2.79,84-.94,84-5.73,0-2.9-66.41-3.58-66.36-6.53.07-3.91,112.74-4,112.74-8.48,0-3.34-48.11-5.22-48.11-5.22H241.21" style="fill:#636FA4"></path><path d="M477.27,394.5s22.3,1.4,27.87,1.51,17.26-1.51,17.26-1.51Z" style="fill:#636FA4"></path><path d="M58.83,406.77s22.29,1.4,27.87,1.51S104,406.77,104,406.77Z" style="fill:#636FA4"></path><path d="M130.93,388.9s38.26,2.48,47.82,2.68,29.6-2.68,29.6-2.68Z" style="fill:#636FA4"></path><path d="M213.65,405.73s47.51,3.32,59.38,3.59,36.76-3.59,36.76-3.59Z" style="fill:#636FA4"></path><path d="M522.7,421.14S490,424.68,481.79,425s-25.32-3.82-25.32-3.82Z" style="fill:#636FA4"></path><path d="M414,378.23s22.29,2.33,27.87,2.52,17.25-2.52,17.25-2.52Z" style="fill:#fff"></path><path d="M267.74,379.49s-32.68,2.75-40.85,3-25.29-3-25.29-3Z" style="fill:#636FA4"></path><path d="M688.91,403.82s-68.47,3.42-85.58,3.69-53-3.69-53-3.69Z" style="fill:#636FA4"></path><path d="M277,418.91s11.67,1.45,15.76,1.51,17.34-1.51,17.34-1.51Z" style="fill:#636FA4"></path><path d="M527.66,424.22s11.67,1.45,15.76,1.51,17.34-1.51,17.34-1.51Z" style="fill:#636FA4"></path><path d="M394.72,431.18a67.15,67.15,0,0,0,8.12,1.51c2.11.05,8.94-1.51,8.94-1.51Z" style="fill:#636FA4"></path><path d="M431.77,410.06s8.45,1,11.41,1,12.56-1,12.56-1Z" style="fill:#636FA4"></path><path d="M345.87,388.49s-9.21,1.39-11.51,1.5-19.28-1.5-19.28-1.5Z" style="fill:#fff"></path><path d="M401.45,385.2s-6.23,1.4-7.78,1.51-13.05-1.51-13.05-1.51Z" style="fill:#fff"></path><polygon points="400.94 381.33 405.11 382.11 406.04 386.51 406.98 382.11 411.15 381.33 406.99 380.31 406.04 376.16 405.09 380.31 400.94 381.33" style="fill:#fff"></polygon><polygon points="347.99 402.74 352.17 403.51 353.1 407.91 354.03 403.51 358.21 402.74 354.05 401.72 353.1 397.56 352.15 401.72 347.99 402.74" style="fill:#fff"></polygon><path d="M350.74,390.17a.43.43,0,0,1,0,.86A.43.43,0,0,1,350.74,390.17Z" style="fill:#fff"></path><path d="M387.34,388.06a.43.43,0,0,1,0,.86A.43.43,0,0,1,387.34,388.06Z" style="fill:#fff"></path><path d="M401.45,415.2a.43.43,0,0,1,0,.86A.43.43,0,0,1,401.45,415.2Z" style="fill:#fff"></path><path d="M345.87,430.75a.43.43,0,0,1,0,.86A.43.43,0,0,1,345.87,430.75Z" style="fill:#fff"></path><path d="M447,394.83a.43.43,0,0,1,0,.86A.43.43,0,0,1,447,394.83Z" style="fill:#fff"></path><path d="M252,379.06a.43.43,0,0,1,0,.86A.43.43,0,0,1,252,379.06Z" style="fill:#fff"></path><path d="M492.05,380.25a.43.43,0,0,1,0,.86A.43.43,0,0,1,492.05,380.25Z" style="fill:#fff"></path><path d="M414,382.58a.83.83,0,0,1,0,1.65A.83.83,0,0,1,414,382.58Z" style="fill:#fff"></path><path d="M419.49,426.84a.83.83,0,0,1,0,1.65A.83.83,0,0,1,419.49,426.84Z" style="fill:#fff"></path><polygon points="272.64 408.18 275.3 408.67 275.89 411.47 276.49 408.67 279.14 408.18 276.5 407.53 275.89 404.88 275.29 407.53 272.64 408.18" style="fill:#fff"></polygon><polygon points="449.97 398.55 452.63 399.04 453.22 401.84 453.81 399.04 456.47 398.55 453.82 397.9 453.22 395.26 452.61 397.9 449.97 398.55" style="fill:#fff"></polygon><polygon points="301.94 387.8 303.43 388.07 303.76 389.64 304.09 388.07 305.57 387.8 304.1 387.44 303.76 385.96 303.42 387.44 301.94 387.8" style="fill:#fff"></polygon><path d="M312.41,389.42a.83.83,0,0,1,0,1.65A.83.83,0,0,1,312.41,389.42Z" style="fill:#fff"></path><polygon points="378.81 417.47 380.29 417.75 380.62 419.31 380.95 417.75 382.44 417.47 380.96 417.11 380.62 415.63 380.28 417.11 378.81 417.47" style="fill:#fff"></polygon><polygon points="484.37 380.98 485.86 381.25 486.19 382.82 486.52 381.25 488.01 380.98 486.53 380.62 486.19 379.14 485.85 380.62 484.37 380.98" style="fill:#fff"></polygon><polygon points="376.99 381.33 378.47 381.61 378.81 383.17 379.14 381.61 380.62 381.33 379.14 380.97 378.81 379.49 378.47 380.97 376.99 381.33" style="fill:#fff"></polygon></g><path d="M698.18,375.79c-206.81.61-438.79.61-645.59,0,206.8-.62,438.79-.61,645.59,0Z" style="fill:#263238"></path><path d="M698.18,456.67c-206.81.61-438.79.61-645.59,0,206.8-.62,438.79-.62,645.59,0Z" style="fill:#263238"></path></g><g id="freepik--Trees--inject-25"><path d="M618.44,203.81s-.69,63.92,20.53,132.36c12.24,39.47,37.94,80.43,59.4,111.51H662.66S631.84,371.36,625,337.05c-15.2-76.48-9.27-134.33-9.27-134.33Z" style="fill:#636FA4"></path><path d="M618.44,203.81s-.69,63.92,20.53,132.36c12.24,39.47,37.94,80.43,59.4,111.51H662.66S631.84,371.36,625,337.05c-15.2-76.48-9.27-134.33-9.27-134.33Z" style="fill:#636FA4;opacity:0.30000000000000004"></path><path d="M653.36,423.86c.1.28.22.55.31.83,1.73,0,3.47,0,5.19-.09,3-.06,5.95-.14,8.92-.33-3-.18-5.95-.26-8.92-.33C657,423.89,655.19,423.88,653.36,423.86Z" style="fill:#636FA4"></path><path d="M656.5,410.7c1.49.1,3,.14,4.46.22l4.45.11c3,.09,6,.1,8.92.11h.25l-.53-.87c-2.87,0-5.76,0-8.64.1l-4.45.12C659.47,410.56,658,410.61,656.5,410.7Z" style="fill:#636FA4"></path><path d="M661.12,404.93c1.49.09,3,.14,4.46.21l4.45.12,1,0c-.14-.23-.28-.46-.41-.7H670l-4.45.12C664.09,404.79,662.61,404.83,661.12,404.93Z" style="fill:#636FA4"></path><path d="M634.68,371.6c.06.17.11.34.17.51q3-.08,5.91-.25C638.73,371.74,636.71,371.66,634.68,371.6Z" style="fill:#636FA4"></path><path d="M632.15,363.67c.08.26.17.52.25.78,1,0,1.94,0,2.91-.05,3-.07,5.94-.15,8.91-.34-3-.17-5.94-.26-8.91-.33Z" style="fill:#636FA4"></path><path d="M623.29,327.87c0,.16.05.32.08.48,1.8-.05,3.61-.12,5.4-.24C626.94,328,625.12,327.93,623.29,327.87Z" style="fill:#636FA4"></path><path d="M619.54,292.85c1.48.1,3,.14,4.45.22l4.09.11c0-.22-.09-.43-.13-.64l-4,.1C622.51,292.71,621,292.75,619.54,292.85Z" style="fill:#636FA4"></path><path d="M615.42,261c0,.09,0,.18,0,.27l2.65-.14C617.21,261.07,616.31,261,615.42,261Z" style="fill:#636FA4"></path><path d="M622.93,288.56c1.42.1,2.86.14,4.28.2,0-.14-.05-.28-.08-.41C625.74,288.42,624.33,288.46,622.93,288.56Z" style="fill:#636FA4"></path><path d="M663.25,162.89l-10.67-2.57,9.47,6.56a42.68,42.68,0,0,1-7,12.73l-10.68-4.78,7.55,8.3a44.28,44.28,0,0,1-3.88,3.51l-6.28-3.14,3.53,5.22a59.7,59.7,0,0,1-8.77,5.11l-5.08-5.65,2.89,6.65a92,92,0,0,1-18.71,5.77l44.15-76.68a71.23,71.23,0,0,1,4.55,18l-4.68-.07,4.94,2.59c.16,2,.25,4,.22,6.11l-11.09-1.15,10.81,6.25A50.52,50.52,0,0,1,663.25,162.89Z" style="fill:#636FA4"></path><path d="M679.31,202.25l-4-4.85,2.11,6.66a33.38,33.38,0,0,1-7.17,4.77l-4.7-8.94.38,10.71a35.44,35.44,0,0,1-4.9,1.24l-3.1-6.44-.27,6.9a46,46,0,0,1-8.75-.08L647.19,201l-2.91,10.55c-1.47-.27-3-.6-4.56-1l0-7.36-3.88,6.24a107.45,107.45,0,0,1-19.92-8.89l72.12-12A37.52,37.52,0,0,1,679.31,202.25Z" style="fill:#636FA4"></path><path d="M615.92,200.66a125.16,125.16,0,0,1-16.42-21.43l7.86-4.67-9.61,1.61a82.43,82.43,0,0,1-3.81-7.83l8-5.29-9.68,1c-.8-2.23-1.47-4.41-2-6.56l13.93-5-15.37-2.39a61.11,61.11,0,0,1-.27-14.37h0l18.14-4.09-17.06-2.78c.26-1.23.56-2.42.89-3.6l9.81.38-8.8-3.66a67.94,67.94,0,0,1,3.47-8.34l14,3-11.76-7.18A74,74,0,0,1,613.35,90Z" style="fill:#636FA4"></path><path d="M590.05,190.72l3-7.8L586.79,189h0c-1.21-.66-2.41-1.35-3.62-2.07l3.25-5.41-5.16,4.24c-1.94-1.22-3.86-2.51-5.74-3.89l5-6.48-8.16,4a63.52,63.52,0,0,1-9.38-9.31l10.1-8.35-12.72,4.81a43.15,43.15,0,0,1-4.88-9.51l10-6.6-11.18,2.74a38.08,38.08,0,0,1-1-5.65l15-6.66-15-.9a47.4,47.4,0,0,1,1.29-7.65l10.78-.65-9.75-3a73.65,73.65,0,0,1,7.61-16.09s15.16,59.75,52.76,88A135.58,135.58,0,0,1,590.05,190.72Z" style="fill:#636FA4"></path><path d="M596.29,207.64l-1.79-3.72.65,3.88q-1.64.21-3.18.27l-1.25-4.95-1.36,5a34,34,0,0,1-4.38-.38l.69-8.2-4,7.51a32.26,32.26,0,0,1-8.56-3.62l1.33-6.26-3.29,5c-1.07-.76-2.09-1.56-3-2.39l4-6.72L566,197.7a45.65,45.65,0,0,1-4.55-5.39l3.6-4.05-4.55,2.7c-.48-.71-.93-1.41-1.35-2.11l2.43-2.23-3.23.9a53.64,53.64,0,0,1-4.66-10.46c20.18,19.74,62.41,23.53,62.41,23.53A61.13,61.13,0,0,1,596.29,207.64Z" style="fill:#636FA4"></path><path d="M651.77,230.55l-1.08-3.46-.43,3.6a28.35,28.35,0,0,1-4.12,0l.35-6-2.39,5.74a27.06,27.06,0,0,1-6.06-1.59L639,223l-3.75,4.58a28.62,28.62,0,0,1-3.67-2.28l2.45-4.47-3.87,3.38a33.31,33.31,0,0,1-2.63-2.36l3.4-5.38-6,2.51c-.79-1-1.58-2-2.35-3.11l2.87-2.46-3.76,1.12a70.36,70.36,0,0,1-6.89-14.14s26.17,22.47,48.4,26.71A32.67,32.67,0,0,1,651.77,230.55Z" style="fill:#636FA4"></path><path d="M604.78,224.4l-3.88-3.84,2.29,5.44a24.7,24.7,0,0,1-3.7,2.84l-3.27-3.07,1.77,3.92c-.64.34-1.3.64-2,.91l-3.63-5.42,1,6.27a23.6,23.6,0,0,1-6.54.72l-2-4.55-.23,4.39c-1-.12-2-.28-2.92-.47L581,227.1l-1,4a34.13,34.13,0,0,1-8.89-3.78c23.7-3.19,44.09-24.4,44.09-24.4C612.58,213.09,608.88,219.92,604.78,224.4Z" style="fill:#636FA4"></path><path d="M626.07,217.42a8.87,8.87,0,1,1-6.84-10.52A8.87,8.87,0,0,1,626.07,217.42Z" style="fill:#636FA4"></path><path d="M626.07,217.42a8.87,8.87,0,1,1-6.84-10.52A8.87,8.87,0,0,1,626.07,217.42Z" style="fill:#636FA4;opacity:0.4"></path><path d="M620.21,208.13a8.87,8.87,0,1,1-6.85-10.52A8.88,8.88,0,0,1,620.21,208.13Z" style="fill:#636FA4"></path><path d="M620.21,208.13a8.87,8.87,0,1,1-6.85-10.52A8.88,8.88,0,0,1,620.21,208.13Z" style="fill:#636FA4;opacity:0.30000000000000004"></path><path d="M629.22,208.4a8.87,8.87,0,1,1-6.84-10.52A8.86,8.86,0,0,1,629.22,208.4Z" style="fill:#636FA4"></path><path d="M629.22,208.4a8.87,8.87,0,1,1-6.84-10.52A8.86,8.86,0,0,1,629.22,208.4Z" style="fill:#636FA4;opacity:0.2"></path><g style="opacity:0.4"><path d="M618.44,203.81s-.69,63.92,20.53,132.36c12.24,39.47,37.94,80.43,59.4,111.51H662.66S631.84,371.36,625,337.05c-15.2-76.48-9.27-134.33-9.27-134.33Z"></path><path d="M618.44,203.81s-.69,63.92,20.53,132.36c12.24,39.47,37.94,80.43,59.4,111.51H662.66S631.84,371.36,625,337.05c-15.2-76.48-9.27-134.33-9.27-134.33Z" style="opacity:0.30000000000000004"></path><path d="M663.25,162.89l-10.67-2.57,9.47,6.56a42.68,42.68,0,0,1-7,12.73l-10.68-4.78,7.55,8.3a44.28,44.28,0,0,1-3.88,3.51l-6.28-3.14,3.53,5.22a59.7,59.7,0,0,1-8.77,5.11l-5.08-5.65,2.89,6.65a92,92,0,0,1-18.71,5.77l44.15-76.68a71.23,71.23,0,0,1,4.55,18l-4.68-.07,4.94,2.59c.16,2,.25,4,.22,6.11l-11.09-1.15,10.81,6.25A50.52,50.52,0,0,1,663.25,162.89Z"></path><path d="M679.31,202.25l-4-4.85,2.11,6.66a33.38,33.38,0,0,1-7.17,4.77l-4.7-8.94.38,10.71a35.44,35.44,0,0,1-4.9,1.24l-3.1-6.44-.27,6.9a46,46,0,0,1-8.75-.08L647.19,201l-2.91,10.55c-1.47-.27-3-.6-4.56-1l0-7.36-3.88,6.24a107.45,107.45,0,0,1-19.92-8.89l72.12-12A37.52,37.52,0,0,1,679.31,202.25Z"></path><path d="M615.92,200.66a125.16,125.16,0,0,1-16.42-21.43l7.86-4.67-9.61,1.61a82.43,82.43,0,0,1-3.81-7.83l8-5.29-9.68,1c-.8-2.23-1.47-4.41-2-6.56l13.93-5-15.37-2.39a61.11,61.11,0,0,1-.27-14.37h0l18.14-4.09-17.06-2.78c.26-1.23.56-2.42.89-3.6l9.81.38-8.8-3.66a67.94,67.94,0,0,1,3.47-8.34l14,3-11.76-7.18A74,74,0,0,1,613.35,90Z"></path><path d="M590.05,190.72l3-7.8L586.79,189h0c-1.21-.66-2.41-1.35-3.62-2.07l3.25-5.41-5.16,4.24c-1.94-1.22-3.86-2.51-5.74-3.89l5-6.48-8.16,4a63.52,63.52,0,0,1-9.38-9.31l10.1-8.35-12.72,4.81a43.15,43.15,0,0,1-4.88-9.51l10-6.6-11.18,2.74a38.08,38.08,0,0,1-1-5.65l15-6.66-15-.9a47.4,47.4,0,0,1,1.29-7.65l10.78-.65-9.75-3a73.65,73.65,0,0,1,7.61-16.09s15.16,59.75,52.76,88A135.58,135.58,0,0,1,590.05,190.72Z"></path><path d="M596.29,207.64l-1.79-3.72.65,3.88q-1.64.21-3.18.27l-1.25-4.95-1.36,5a34,34,0,0,1-4.38-.38l.69-8.2-4,7.51a32.26,32.26,0,0,1-8.56-3.62l1.33-6.26-3.29,5c-1.07-.76-2.09-1.56-3-2.39l4-6.72L566,197.7a45.65,45.65,0,0,1-4.55-5.39l3.6-4.05-4.55,2.7c-.48-.71-.93-1.41-1.35-2.11l2.43-2.23-3.23.9a53.64,53.64,0,0,1-4.66-10.46c20.18,19.74,62.41,23.53,62.41,23.53A61.13,61.13,0,0,1,596.29,207.64Z"></path><path d="M651.77,230.55l-1.08-3.46-.43,3.6a28.35,28.35,0,0,1-4.12,0l.35-6-2.39,5.74a27.06,27.06,0,0,1-6.06-1.59L639,223l-3.75,4.58a28.62,28.62,0,0,1-3.67-2.28l2.45-4.47-3.87,3.38a33.31,33.31,0,0,1-2.63-2.36l3.4-5.38-6,2.51c-.79-1-1.58-2-2.35-3.11l2.87-2.46-3.76,1.12a70.36,70.36,0,0,1-6.89-14.14s26.17,22.47,48.4,26.71A32.67,32.67,0,0,1,651.77,230.55Z"></path><path d="M604.78,224.4l-3.88-3.84,2.29,5.44a24.7,24.7,0,0,1-3.7,2.84l-3.27-3.07,1.77,3.92c-.64.34-1.3.64-2,.91l-3.63-5.42,1,6.27a23.6,23.6,0,0,1-6.54.72l-2-4.55-.23,4.39c-1-.12-2-.28-2.92-.47L581,227.1l-1,4a34.13,34.13,0,0,1-8.89-3.78c23.7-3.19,44.09-24.4,44.09-24.4C612.58,213.09,608.88,219.92,604.78,224.4Z"></path><path d="M626.07,217.42a8.87,8.87,0,1,1-6.84-10.52A8.87,8.87,0,0,1,626.07,217.42Z"></path><path d="M626.07,217.42a8.87,8.87,0,1,1-6.84-10.52A8.87,8.87,0,0,1,626.07,217.42Z" style="opacity:0.4"></path><path d="M620.21,208.13a8.87,8.87,0,1,1-6.85-10.52A8.88,8.88,0,0,1,620.21,208.13Z"></path><path d="M620.21,208.13a8.87,8.87,0,1,1-6.85-10.52A8.88,8.88,0,0,1,620.21,208.13Z" style="opacity:0.30000000000000004"></path><path d="M629.22,208.4a8.87,8.87,0,1,1-6.84-10.52A8.86,8.86,0,0,1,629.22,208.4Z"></path><path d="M629.22,208.4a8.87,8.87,0,1,1-6.84-10.52A8.86,8.86,0,0,1,629.22,208.4Z" style="opacity:0.2"></path></g><g style="opacity:0.5"><path d="M653.36,423.86c.1.28.22.55.31.83,1.73,0,3.47,0,5.19-.09,3-.06,5.95-.14,8.92-.33-3-.18-5.95-.26-8.92-.33C657,423.89,655.19,423.88,653.36,423.86Z"></path><path d="M656.5,410.7c1.49.1,3,.14,4.46.22l4.45.11c3,.09,6,.1,8.92.11h.25l-.53-.87c-2.87,0-5.76,0-8.64.1l-4.45.12C659.47,410.56,658,410.61,656.5,410.7Z"></path><path d="M661.12,404.93c1.49.09,3,.14,4.46.21l4.45.12,1,0c-.14-.23-.28-.46-.41-.7H670l-4.45.12C664.09,404.79,662.61,404.83,661.12,404.93Z"></path><path d="M634.68,371.6c.06.17.11.34.17.51q3-.08,5.91-.25C638.73,371.74,636.71,371.66,634.68,371.6Z"></path><path d="M632.15,363.67c.08.26.17.52.25.78,1,0,1.94,0,2.91-.05,3-.07,5.94-.15,8.91-.34-3-.17-5.94-.26-8.91-.33Z"></path><path d="M623.29,327.87c0,.16.05.32.08.48,1.8-.05,3.61-.12,5.4-.24C626.94,328,625.12,327.93,623.29,327.87Z"></path><path d="M619.54,292.85c1.48.1,3,.14,4.45.22l4.09.11c0-.22-.09-.43-.13-.64l-4,.1C622.51,292.71,621,292.75,619.54,292.85Z"></path><path d="M615.42,261c0,.09,0,.18,0,.27l2.65-.14C617.21,261.07,616.31,261,615.42,261Z"></path><path d="M622.93,288.56c1.42.1,2.86.14,4.28.2,0-.14-.05-.28-.08-.41C625.74,288.42,624.33,288.46,622.93,288.56Z"></path></g><g style="opacity:0.5"><path d="M557.08,140.2l-3.86-.23a47.4,47.4,0,0,1,1.29-7.65l3.1-.19A57,57,0,0,0,557.08,140.2Z" style="fill:#636FA4"></path><path d="M554.27,153.18a38.08,38.08,0,0,1-1-5.65l4.14-1.84a41.47,41.47,0,0,0,1.29,6.4Z" style="fill:#636FA4"></path><path d="M558,129.46l-2.49-.75a73.74,73.74,0,0,1,7.59-16.05A72.07,72.07,0,0,0,558,129.46Z" style="fill:#636FA4"></path><path d="M561.07,186.75l-2.75.77a52.94,52.94,0,0,1-4.65-10.45,47.35,47.35,0,0,0,3.9,3.41h0A64.9,64.9,0,0,0,561.07,186.75Z" style="fill:#636FA4"></path><path d="M562.91,189.51,560.47,191c-.48-.71-.93-1.41-1.35-2.11l2.08-1.9C561.72,187.76,562.28,188.62,562.91,189.51Z" style="fill:#636FA4"></path><path d="M561.5,159a54.77,54.77,0,0,0,3.54,5.75l-4.7,1.78a43.15,43.15,0,0,1-4.88-9.51l4-2.64A35.51,35.51,0,0,0,561.5,159Z" style="fill:#636FA4"></path><path d="M568.17,196,566,197.7a45.65,45.65,0,0,1-4.55-5.39l1.93-2.17A53,53,0,0,0,568.17,196Z" style="fill:#636FA4"></path><path d="M572.57,200l-1.39,2.11c-1.07-.76-2.09-1.56-3-2.39l1.39-2.33A34.18,34.18,0,0,0,572.57,200Z" style="fill:#636FA4"></path><path d="M563,170.09l3.72-3.07a79.61,79.61,0,0,0,9.67,10.41l-4,2A63.52,63.52,0,0,1,563,170.09Z" style="fill:#636FA4"></path><path d="M577.5,203a41.56,41.56,0,0,0,5.35,1.9L581.7,207a32.26,32.26,0,0,1-8.56-3.62l.55-2.58A23.08,23.08,0,0,0,577.5,203Z" style="fill:#636FA4"></path><path d="M575.51,181.87l2.37-3.08c2,1.71,4,3.33,6,4.84l-2.59,2.13C579.31,184.54,577.39,183.25,575.51,181.87Z" style="fill:#636FA4"></path><path d="M581.63,230.77a24.78,24.78,0,0,0,3.08.53l0,.71c-1-.12-2-.28-2.92-.47Z" style="fill:#636FA4"></path><path d="M583.16,186.93l1.58-2.63c1.33,1,2.66,1.94,4,2.83L586.79,189h0C585.57,188.34,584.37,187.65,583.16,186.93Z" style="fill:#636FA4"></path><path d="M585.17,205.42a38.5,38.5,0,0,0,4.72.73l-.53,1.94a34,34,0,0,1-4.38-.38Z" style="fill:#636FA4"></path><path d="M593.43,231.45a23.6,23.6,0,0,1-6.54.72l-.3-.69A52.27,52.27,0,0,0,593.43,231.45Z" style="fill:#636FA4"></path><path d="M593.45,129.48l-3.8-.62c.26-1.23.56-2.42.89-3.6l3.55.14C593.83,126.73,593.62,128.09,593.45,129.48Z" style="fill:#636FA4"></path><path d="M588.83,150.11a61.11,61.11,0,0,1-.27-14.37h0l4.47-1a59.73,59.73,0,0,0,.2,7c.28,3.2.67,6.27,1.14,9.22Z" style="fill:#636FA4"></path><path d="M595.15,207.8q-1.64.21-3.18.27l-.46-1.8c1.19.07,2.32.07,3.39,0Z" style="fill:#636FA4"></path><path d="M595.23,155.74c.55,2.75,1.16,5.36,1.81,7.84l-4.76.51c-.8-2.23-1.47-4.41-2-6.56Z" style="fill:#636FA4"></path><path d="M594.56,123.23l-3-1.25a67.94,67.94,0,0,1,3.47-8.34l2.38.51A62.26,62.26,0,0,0,594.56,123.23Z" style="fill:#636FA4"></path><path d="M597.75,176.17a82.43,82.43,0,0,1-3.81-7.83l3.73-2.46c1,3.58,2.1,6.85,3.19,9.77Z" style="fill:#636FA4"></path><path d="M605.83,211.21q.15.21.33.42s-.3.34-.91.93c-2.86,2.75-12.47,11-29.69,15.59a11.34,11.34,0,0,0,4.69,2.27l-.17.71a34.13,34.13,0,0,1-8.89-3.78c13.2-1.78,25.38-9.15,33.57-15.33a8.9,8.9,0,0,1-2.11-5.8,48.39,48.39,0,0,1-6.36,1.42l-.65-1.36a45.64,45.64,0,0,0,7.06-.9l1.13-.23a6.75,6.75,0,0,0,0,.72A10,10,0,0,0,605.83,211.21Z" style="fill:#636FA4"></path><path d="M590.87,188.59c6.29,4.15,12,7.2,15.49,9.09h-.05a141.34,141.34,0,0,1-16.26-6.95Z" style="fill:#636FA4"></path><path d="M599,110.47l-1.71-1a74.26,74.26,0,0,1,16-19.35A70.35,70.35,0,0,0,599,110.47Z" style="fill:#636FA4"></path><path d="M601.72,177.91a92.79,92.79,0,0,0,7.12,14.64l0,0a114.7,114.7,0,0,1-9.32-13.3Z" style="fill:#636FA4"></path><path d="M615.56,198.39,613.35,90l2.52,108.53c.14.07.27.15.4.23l.54-.27L659.74,124c-.73,1.59-23.43,51-42.11,74.22q-.4.51-.81,1c-.3.37-.61.73-.91,1.08l-.18.21,0,0,0,.05,0,0h0v-.28l0-1.11Z" style="fill:#636FA4"></path><path d="M672.66,447.68h-10S631.84,371.36,625,337.05A537.8,537.8,0,0,1,614.7,224a8.84,8.84,0,0,1-5.66-5.46,2.39,2.39,0,0,1-.13.21l.06-.42v-.08s0,.07.12.18a11.86,11.86,0,0,0,5.63,4.37,6,6,0,0,0,1.34.27s0,.44.09,1.27c.65,10,5.24,76.76,11.92,107.14C635.31,364.4,672.66,447.68,672.66,447.68Z" style="fill:#636FA4"></path><path d="M627.29,212.32a8.87,8.87,0,1,1-4.91-14.44,7.7,7.7,0,0,1,.94.26,8.31,8.31,0,1,0,4,14.18Z" style="fill:#636FA4"></path></g><path d="M537.43,266.65S536.77,314.1,557,364.9c11.65,29.3,86.15,59.71,106.58,82.78h-34S550.19,391,543.7,365.56c-14.47-56.78-8.83-99.72-8.83-99.72Z" style="fill:#636FA4"></path><path d="M537.43,266.65S536.77,314.1,557,364.9c11.65,29.3,86.15,59.71,106.58,82.78h-34S550.19,391,543.7,365.56c-14.47-56.78-8.83-99.72-8.83-99.72Z" style="fill:#636FA4;opacity:0.30000000000000004"></path><path d="M606.13,430l.77.61c1.34,0,2.7,0,4-.06,2.82-.05,5.66-.11,8.49-.25-2.83-.13-5.67-.19-8.49-.25Z" style="fill:#636FA4"></path><path d="M612.36,420.23c1.4.07,2.82.1,4.23.17l4.24.08,5.48.06-1-.62c-1.48,0-3,0-4.47.07l-4.24.08C615.18,420.12,613.76,420.16,612.36,420.23Z" style="fill:#636FA4"></path><path d="M621.9,422.41l4.24.15,3.56.08c-.25-.14-.48-.3-.73-.46l-2.83.07C624.72,422.3,623.32,422.34,621.9,422.41Z" style="fill:#636FA4"></path><path d="M561.84,391.21c.1.12.22.24.34.36,1.69,0,3.37-.09,5.07-.17C565.45,391.31,563.64,391.27,561.84,391.21Z" style="fill:#636FA4"></path><path d="M556.4,385.34l.46.54c.42,0,.85,0,1.27,0,2.83,0,5.65-.1,8.48-.25-2.83-.11-5.65-.18-8.48-.23Z" style="fill:#636FA4"></path><path d="M542,358.74c0,.12.05.24.08.35,1.72,0,3.44-.09,5.15-.17C545.52,358.84,543.79,358.79,542,358.74Z" style="fill:#636FA4"></path><path d="M538.47,332.74c1.41.07,2.83.11,4.24.16l3.89.09-.12-.48-3.77.08C541.3,332.64,539.88,332.67,538.47,332.74Z" style="fill:#636FA4"></path><path d="M534.55,309.09c0,.07,0,.14,0,.2.84,0,1.69-.06,2.53-.1Z" style="fill:#636FA4"></path><path d="M541.7,329.56c1.36.07,2.72.1,4.08.15,0-.11,0-.21-.08-.31C544.37,329.46,543,329.49,541.7,329.56Z" style="fill:#636FA4"></path><path d="M562.35,227.18l-8.68.07,8.53,3.22a34,34,0,0,1-2.93,11.1L550.16,240l7.38,4.91a35.53,35.53,0,0,1-2.3,3.44l-5.42-1.2,3.71,3.33a47.23,47.23,0,0,1-5.75,5.6l-5-3.36,3.5,4.55a73.28,73.28,0,0,1-13.25,8L552.19,198a56.32,56.32,0,0,1,6.95,12.93l-3.61.84,4.29,1c.5,1.47,1,3,1.34,4.64l-8.72,1.25,9.48,2.72A39.42,39.42,0,0,1,562.35,227.18Z" style="fill:#636FA4"></path><path d="M582.23,254.28l-4-2.94,2.89,4.7a26.34,26.34,0,0,1-4.58,5l-5.32-6,2.35,8.15a29.37,29.37,0,0,1-3.53,1.88l-3.61-4.34,1.12,5.34a35.69,35.69,0,0,1-6.73,1.62l-3.44-8.28-.2,8.66c-1.19.07-2.41.11-3.69.1l-1.41-5.65-1.77,5.53a85.62,85.62,0,0,1-17-3l53-23.1A29.75,29.75,0,0,1,582.23,254.28Z" style="fill:#636FA4"></path><path d="M533.3,265.23A99.41,99.41,0,0,1,516.59,252l5.14-5.1-7.07,3.09a66.5,66.5,0,0,1-4.42-5.28l5.14-5.59-7.23,2.65q-1.56-2.33-2.81-4.65l9.72-6.53-12.25,1.12a48.26,48.26,0,0,1-3-11h0L513,214.06l-13.61,1.14c0-1,0-2,0-2.93l7.6-1.6-7.46-1.11a54.66,54.66,0,0,1,1.06-7.06l11.32-.42-10.39-3.24a58.76,58.76,0,0,1,8.6-18Z" style="fill:#636FA4"></path><path d="M511.55,262.58l.8-6.56-3.63,5.86h0c-1-.27-2.11-.57-3.17-.89l1.45-4.78-3.15,4.25c-1.72-.56-3.44-1.19-5.14-1.89l2.58-5.92-5.49,4.64a50.42,50.42,0,0,1-9-5.34l6.15-8.34-8.84,6.13a34.22,34.22,0,0,1-5.57-6.36l6.4-7-8.05,4.25a30.52,30.52,0,0,1-1.84-4.15l10.21-8-11.71,2.2a36.21,36.21,0,0,1-.48-6.11l8.14-2.58-8.05-.39a59,59,0,0,1,2.75-13.81s23.1,42.92,57.38,57.4A107.2,107.2,0,0,1,511.55,262.58Z" style="fill:#636FA4"></path><path d="M519.59,274.35l-2.09-2.51,1.24,2.86c-.81.31-1.6.58-2.39.82l-1.9-3.56-.09,4.07a27,27,0,0,1-3.44.55l-1-6.42-1.6,6.52a25.31,25.31,0,0,1-7.26-1.14l-.19-5.05-1.56,4.45a27.32,27.32,0,0,1-2.8-1.25l1.8-5.92-3.85,4.78a36.43,36.43,0,0,1-4.53-3.26l2-3.8-3,2.95c-.51-.45-1-.91-1.44-1.36l1.44-2.18-2.31,1.31a42.59,42.59,0,0,1-5.59-7.13c19.27,11.27,52.39,6.07,52.39,6.07A48.14,48.14,0,0,1,519.59,274.35Z" style="fill:#636FA4"></path><path d="M566.53,281.27,565,278.83l.36,2.84a24.32,24.32,0,0,1-3.16.79l-.88-4.64-.72,4.86a21.65,21.65,0,0,1-4.95-.05l-.43-4.67-2,4.23a21.43,21.43,0,0,1-3.25-1l1-3.9-2.31,3.33a25.59,25.59,0,0,1-2.47-1.3l1.57-4.78-4.13,3.08c-.79-.59-1.6-1.23-2.4-1.94L543,273.2l-2.67,1.59a55.17,55.17,0,0,1-8-9.53s24.38,12.22,42.25,11.2A25.68,25.68,0,0,1,566.53,281.27Z" style="fill:#636FA4"></path><path d="M529.31,285.58l-3.71-2.2,2.8,3.73a20.1,20.1,0,0,1-2.29,2.89l-3.1-1.73,2.11,2.67a14.83,14.83,0,0,1-1.33,1.07L520,288.55l2,4.61a18.09,18.09,0,0,1-4.88,1.81l-2.4-3.1.67,3.4c-.8.11-1.58.17-2.33.2l-1.4-3.27,0,3.28a27.15,27.15,0,0,1-7.54-1.19c17.56-7,29.13-27.18,29.13-27.18C533.12,275.4,531.6,281.35,529.31,285.58Z" style="fill:#636FA4"></path><path d="M544.3,276.14a7,7,0,1,1-7.26-6.75A7,7,0,0,1,544.3,276.14Z" style="fill:#636FA4"></path><path d="M544.3,276.14a7,7,0,1,1-7.26-6.75A7,7,0,0,1,544.3,276.14Z" style="fill:#636FA4;opacity:0.4"></path><path d="M538,270.14a7,7,0,1,1-7.27-6.76A7,7,0,0,1,538,270.14Z" style="fill:#636FA4"></path><path d="M538,270.14a7,7,0,1,1-7.27-6.76A7,7,0,0,1,538,270.14Z" style="fill:#636FA4;opacity:0.30000000000000004"></path><path d="M545,268.62a7,7,0,1,1-7.27-6.76A7,7,0,0,1,545,268.62Z" style="fill:#636FA4"></path><path d="M545,268.62a7,7,0,1,1-7.27-6.76A7,7,0,0,1,545,268.62Z" style="fill:#636FA4;opacity:0.2"></path><g style="opacity:0.4"><path d="M537.43,266.65S536.77,314.1,557,364.9c11.65,29.3,86.15,59.71,106.58,82.78h-34S550.19,391,543.7,365.56c-14.47-56.78-8.83-99.72-8.83-99.72Z"></path><path d="M537.43,266.65S536.77,314.1,557,364.9c11.65,29.3,86.15,59.71,106.58,82.78h-34S550.19,391,543.7,365.56c-14.47-56.78-8.83-99.72-8.83-99.72Z" style="opacity:0.30000000000000004"></path><path d="M562.35,227.18l-8.68.07,8.53,3.22a34,34,0,0,1-2.93,11.1L550.16,240l7.38,4.91a35.53,35.53,0,0,1-2.3,3.44l-5.42-1.2,3.71,3.33a47.23,47.23,0,0,1-5.75,5.6l-5-3.36,3.5,4.55a73.28,73.28,0,0,1-13.25,8L552.19,198a56.32,56.32,0,0,1,6.95,12.93l-3.61.84,4.29,1c.5,1.47,1,3,1.34,4.64l-8.72,1.25,9.48,2.72A39.42,39.42,0,0,1,562.35,227.18Z"></path><path d="M582.23,254.28l-4-2.94,2.89,4.7a26.34,26.34,0,0,1-4.58,5l-5.32-6,2.35,8.15a29.37,29.37,0,0,1-3.53,1.88l-3.61-4.34,1.12,5.34a35.69,35.69,0,0,1-6.73,1.62l-3.44-8.28-.2,8.66c-1.19.07-2.41.11-3.69.1l-1.41-5.65-1.77,5.53a85.62,85.62,0,0,1-17-3l53-23.1A29.75,29.75,0,0,1,582.23,254.28Z"></path><path d="M533.3,265.23A99.41,99.41,0,0,1,516.59,252l5.14-5.1-7.07,3.09a66.5,66.5,0,0,1-4.42-5.28l5.14-5.59-7.23,2.65q-1.56-2.33-2.81-4.65l9.72-6.53-12.25,1.12a48.26,48.26,0,0,1-3-11h0L513,214.06l-13.61,1.14c0-1,0-2,0-2.93l7.6-1.6-7.46-1.11a54.66,54.66,0,0,1,1.06-7.06l11.32-.42-10.39-3.24a58.76,58.76,0,0,1,8.6-18Z"></path><path d="M511.55,262.58l.8-6.56-3.63,5.86h0c-1-.27-2.11-.57-3.17-.89l1.45-4.78-3.15,4.25c-1.72-.56-3.44-1.19-5.14-1.89l2.58-5.92-5.49,4.64a50.42,50.42,0,0,1-9-5.34l6.15-8.34-8.84,6.13a34.22,34.22,0,0,1-5.57-6.36l6.4-7-8.05,4.25a30.52,30.52,0,0,1-1.84-4.15l10.21-8-11.71,2.2a36.21,36.21,0,0,1-.48-6.11l8.14-2.58-8.05-.39a59,59,0,0,1,2.75-13.81s23.1,42.92,57.38,57.4A107.2,107.2,0,0,1,511.55,262.58Z"></path><path d="M519.59,274.35l-2.09-2.51,1.24,2.86c-.81.31-1.6.58-2.39.82l-1.9-3.56-.09,4.07a27,27,0,0,1-3.44.55l-1-6.42-1.6,6.52a25.31,25.31,0,0,1-7.26-1.14l-.19-5.05-1.56,4.45a27.32,27.32,0,0,1-2.8-1.25l1.8-5.92-3.85,4.78a36.43,36.43,0,0,1-4.53-3.26l2-3.8-3,2.95c-.51-.45-1-.91-1.44-1.36l1.44-2.18-2.31,1.31a42.59,42.59,0,0,1-5.59-7.13c19.27,11.27,52.39,6.07,52.39,6.07A48.14,48.14,0,0,1,519.59,274.35Z"></path><path d="M566.53,281.27,565,278.83l.36,2.84a24.32,24.32,0,0,1-3.16.79l-.88-4.64-.72,4.86a21.65,21.65,0,0,1-4.95-.05l-.43-4.67-2,4.23a21.43,21.43,0,0,1-3.25-1l1-3.9-2.31,3.33a25.59,25.59,0,0,1-2.47-1.3l1.57-4.78-4.13,3.08c-.79-.59-1.6-1.23-2.4-1.94L543,273.2l-2.67,1.59a55.17,55.17,0,0,1-8-9.53s24.38,12.22,42.25,11.2A25.68,25.68,0,0,1,566.53,281.27Z"></path><path d="M529.31,285.58l-3.71-2.2,2.8,3.73a20.1,20.1,0,0,1-2.29,2.89l-3.1-1.73,2.11,2.67a14.83,14.83,0,0,1-1.33,1.07L520,288.55l2,4.61a18.09,18.09,0,0,1-4.88,1.81l-2.4-3.1.67,3.4c-.8.11-1.58.17-2.33.2l-1.4-3.27,0,3.28a27.15,27.15,0,0,1-7.54-1.19c17.56-7,29.13-27.18,29.13-27.18C533.12,275.4,531.6,281.35,529.31,285.58Z"></path><path d="M544.3,276.14a7,7,0,1,1-7.26-6.75A7,7,0,0,1,544.3,276.14Z"></path><path d="M544.3,276.14a7,7,0,1,1-7.26-6.75A7,7,0,0,1,544.3,276.14Z" style="opacity:0.4"></path><path d="M538,270.14a7,7,0,1,1-7.27-6.76A7,7,0,0,1,538,270.14Z"></path><path d="M538,270.14a7,7,0,1,1-7.27-6.76A7,7,0,0,1,538,270.14Z" style="opacity:0.30000000000000004"></path><path d="M545,268.62a7,7,0,1,1-7.27-6.76A7,7,0,0,1,545,268.62Z"></path><path d="M545,268.62a7,7,0,1,1-7.27-6.76A7,7,0,0,1,545,268.62Z" style="opacity:0.2"></path></g><g style="opacity:0.5"><path d="M606.13,430l.77.61c1.34,0,2.7,0,4-.06,2.82-.05,5.66-.11,8.49-.25-2.83-.13-5.67-.19-8.49-.25Z"></path><path d="M612.36,420.23c1.4.07,2.82.1,4.23.17l4.24.08,5.48.06-1-.62c-1.48,0-3,0-4.47.07l-4.24.08C615.18,420.12,613.76,420.16,612.36,420.23Z"></path><path d="M621.9,422.41l4.24.15,3.56.08c-.25-.14-.48-.3-.73-.46l-2.83.07C624.72,422.3,623.32,422.34,621.9,422.41Z"></path><path d="M561.84,391.21c.1.12.22.24.34.36,1.69,0,3.37-.09,5.07-.17C565.45,391.31,563.64,391.27,561.84,391.21Z"></path><path d="M556.4,385.34l.46.54c.42,0,.85,0,1.27,0,2.83,0,5.65-.1,8.48-.25-2.83-.11-5.65-.18-8.48-.23Z"></path><path d="M542,358.74c0,.12.05.24.08.35,1.72,0,3.44-.09,5.15-.17C545.52,358.84,543.79,358.79,542,358.74Z"></path><path d="M538.47,332.74c1.41.07,2.83.11,4.24.16l3.89.09-.12-.48-3.77.08C541.3,332.64,539.88,332.67,538.47,332.74Z"></path><path d="M534.55,309.09c0,.07,0,.14,0,.2.84,0,1.69-.06,2.53-.1Z"></path><path d="M541.7,329.56c1.36.07,2.72.1,4.08.15,0-.11,0-.21-.08-.31C544.37,329.46,543,329.49,541.7,329.56Z"></path></g><g style="opacity:0.6000000000000001"><path d="M475,221.73l-1.79-.09a58.94,58.94,0,0,1,2.72-13.7A52.08,52.08,0,0,0,475,221.73Z" style="fill:#636FA4"></path><path d="M476.15,230.23l-2.59.49a36.21,36.21,0,0,1-.48-6.11l2.06-.65A52.19,52.19,0,0,0,476.15,230.23Z" style="fill:#636FA4"></path><path d="M479.29,239.39l-2.39,1.26a30.52,30.52,0,0,1-1.84-4.15l2.32-1.82c.19.61.41,1.23.64,1.85A26,26,0,0,0,479.29,239.39Z" style="fill:#636FA4"></path><path d="M478.55,243.38l1.85-2a34.12,34.12,0,0,0,5.79,6.94l-2.07,1.44A34.22,34.22,0,0,1,478.55,243.38Z" style="fill:#636FA4"></path><path d="M488.37,265.21l-1.77,1a42.59,42.59,0,0,1-5.59-7.13,39.15,39.15,0,0,0,4,2A29.45,29.45,0,0,0,488.37,265.21Z" style="fill:#636FA4"></path><path d="M490.28,267.08l-1.37,1.36c-.51-.45-1-.91-1.44-1.36l1.1-1.66C489.08,266,489.65,266.51,490.28,267.08Z" style="fill:#636FA4"></path><path d="M490.8,267.55a38.82,38.82,0,0,0,4.76,3.59l-1.14,1.41a36.43,36.43,0,0,1-4.53-3.26Z" style="fill:#636FA4"></path><path d="M497.29,256l-1.5,1.27a50.42,50.42,0,0,1-9-5.34l1.39-1.89A54.3,54.3,0,0,0,497.29,256Z" style="fill:#636FA4"></path><path d="M497,272c.88.51,1.82,1,2.81,1.46l-.52,1.48a27.32,27.32,0,0,1-2.8-1.25Z" style="fill:#636FA4"></path><path d="M499.37,215.2c0-1,0-2,0-2.93l3-.63c0,1.09,0,2.19.05,3.3Z" style="fill:#636FA4"></path><path d="M502.42,210l-2.92-.43a54.66,54.66,0,0,1,1.06-7.06l2.67-.1A65.32,65.32,0,0,0,502.42,210Z" style="fill:#636FA4"></path><path d="M503.84,260.46c-1.72-.56-3.44-1.19-5.14-1.89l.66-1.52c1.7.83,3.46,1.59,5.3,2.3Z" style="fill:#636FA4"></path><path d="M504.12,225.38a56.39,56.39,0,0,0,2.15,6l-3.46.32a48.26,48.26,0,0,1-3-11h0l3-1.49A39.68,39.68,0,0,0,504.12,225.38Z" style="fill:#636FA4"></path><path d="M503.77,199.55l-2.28-.71a58.87,58.87,0,0,1,8.59-18A81,81,0,0,0,503.77,199.55Z" style="fill:#636FA4"></path><path d="M508.28,276.68a25.31,25.31,0,0,1-7.26-1.14L501,274l.12,0a24.22,24.22,0,0,0,7.41,1.8Z" style="fill:#636FA4"></path><path d="M505.89,259.83c1.1.4,2.23.79,3.38,1.16l-.55.89h0c-1-.27-2.11-.57-3.17-.89Z" style="fill:#636FA4"></path><path d="M508.07,235.24c.94,1.87,1.95,3.68,3,5.41l-2.93,1.07q-1.56-2.33-2.81-4.65Z" style="fill:#636FA4"></path><path d="M526.5,264.88a110.45,110.45,0,0,1-14.95-2.3l.1-.85A103.67,103.67,0,0,0,526.5,264.88Z" style="fill:#636FA4"></path><path d="M510.81,275.9a26.1,26.1,0,0,0,3.56-.28V276a27,27,0,0,1-3.44.55Z" style="fill:#636FA4"></path><path d="M515.15,294.28l.2,1c-.8.11-1.58.17-2.33.2l-.48-1.12C513.32,294.37,514.19,294.35,515.15,294.28Z" style="fill:#636FA4"></path><path d="M510.24,244.66l2-2.17c1.49,2.33,3.06,4.5,4.6,6.5l-2.18.95A66.5,66.5,0,0,1,510.24,244.66Z" style="fill:#636FA4"></path><path d="M516.45,294.16a42,42,0,0,0,5.51-1,18.09,18.09,0,0,1-4.88,1.81Z" style="fill:#636FA4"></path><path d="M516.22,275.28c.94-.21,1.77-.44,2.48-.67l0,.09c-.81.31-1.6.58-2.39.82Z" style="fill:#636FA4"></path><path d="M519.59,274.35l0,0c.49-.18.89-.34,1.19-.47Z" style="fill:#636FA4"></path><path d="M521.37,273.55l2.82-1.5Q522.75,272.89,521.37,273.55Z" style="fill:#636FA4"></path><path d="M527.23,275.71a6,6,0,0,0,.47.38l-.27.33c-1.53,1.93-9.81,11.9-20.22,17.13a14.63,14.63,0,0,0,4.44.78v1.15a27.15,27.15,0,0,1-7.54-1.19c9.78-3.9,17.71-11.89,22.8-18.2a7,7,0,0,1-2.73-4h0l.11-.05.61-.33A7.13,7.13,0,0,0,527.23,275.71Z" style="fill:#636FA4"></path><path d="M529.6,262.75h0a95.55,95.55,0,0,1-13-10.79l1.45-1.44A100.76,100.76,0,0,0,529.6,262.75Z" style="fill:#636FA4"></path><path d="M533.79,263.25l-.07-.36L552.18,198C551.92,199.41,544.26,240.49,533.79,263.25Z" style="fill:#636FA4"></path><path d="M636.08,447.68h-6.53S550.19,391,543.7,365.56a314.29,314.29,0,0,1-9.85-83.06,7,7,0,0,1-2.39-2.23l.11-.48,0,0a9.17,9.17,0,0,0,2.26,2.06,3.33,3.33,0,0,0,1,.4s0,.25.05.72c.46,7.36,4.58,69.31,12.75,85.31C556.4,385.34,636.08,447.68,636.08,447.68Z" style="fill:#636FA4"></path><path d="M545,268.62a7,7,0,1,1-8.24-6.65,6.51,6.51,0,1,0,8.23,6.52A.57.57,0,0,1,545,268.62Z" style="fill:#636FA4"></path></g><path d="M177.75,253.28s.66,47.45-19.55,98.25c-11.65,29.3-86.14,59.71-106.57,82.78h34s79.37-56.66,85.86-82.12c14.46-56.78,8.82-99.72,8.82-99.72Z" style="fill:#636FA4"></path><path d="M177.75,253.28s.66,47.45-19.55,98.25c-11.65,29.3-86.14,59.71-106.57,82.78h34s79.37-56.66,85.86-82.12c14.46-56.78,8.82-99.72,8.82-99.72Z" style="fill:#636FA4;opacity:0.30000000000000004"></path><path d="M109.05,416.63l-.78.61c-1.34,0-2.69,0-4-.06-2.83-.05-5.66-.11-8.49-.25,2.83-.13,5.66-.19,8.49-.25Z" style="fill:#636FA4"></path><path d="M102.82,406.86c-1.41.08-2.83.1-4.23.17l-4.25.08c-1.82,0-3.65.05-5.47.06l1-.62c1.48,0,3,0,4.46.07l4.25.08C100,406.75,101.41,406.79,102.82,406.86Z" style="fill:#636FA4"></path><path d="M93.28,409,89,409.2l-3.56.07c.25-.14.48-.3.73-.46l2.83.07C90.46,408.93,91.86,409,93.28,409Z" style="fill:#636FA4"></path><path d="M153.34,377.84c-.1.12-.22.24-.34.36-1.7,0-3.38-.09-5.07-.17C149.73,377.94,151.54,377.9,153.34,377.84Z" style="fill:#636FA4"></path><path d="M158.78,372c-.16.17-.31.36-.46.54-.42,0-.85,0-1.27,0-2.83,0-5.65-.1-8.48-.25,2.83-.11,5.65-.18,8.48-.23C157.62,372,158.2,372,158.78,372Z" style="fill:#636FA4"></path><path d="M173.14,345.37c0,.12,0,.24-.09.36-1.71,0-3.43-.09-5.14-.18C169.66,345.47,171.39,345.42,173.14,345.37Z" style="fill:#636FA4"></path><path d="M176.71,319.37c-1.42.07-2.83.11-4.24.16l-3.9.09c0-.16.08-.32.13-.48l3.77.08C173.88,319.27,175.29,319.3,176.71,319.37Z" style="fill:#636FA4"></path><path d="M180.62,295.72a1.27,1.27,0,0,1,0,.2c-.85,0-1.69-.06-2.53-.1Z" style="fill:#636FA4"></path><path d="M173.47,316.19c-1.35.07-2.72.1-4.07.15,0-.11,0-.21.07-.31C170.8,316.09,172.14,316.12,173.47,316.19Z" style="fill:#636FA4"></path><path d="M152.83,213.81l8.68.07L153,217.1a33.78,33.78,0,0,0,2.93,11.1l9.11-1.61-7.38,4.91a35.53,35.53,0,0,0,2.3,3.44l5.42-1.2-3.71,3.33a47.11,47.11,0,0,0,5.74,5.6l5-3.36-3.5,4.55a72.93,72.93,0,0,0,13.25,8L163,184.58A56.53,56.53,0,0,0,156,197.51l3.6.84-4.28,1c-.5,1.47-1,3-1.34,4.64l8.72,1.26L153.25,208A39.43,39.43,0,0,0,152.83,213.81Z" style="fill:#636FA4"></path><path d="M133,240.91l4-2.94-2.9,4.7a27,27,0,0,0,4.58,5l5.33-6-2.35,8.15a28.48,28.48,0,0,0,3.52,1.88l3.61-4.34-1.11,5.34a34.93,34.93,0,0,0,6.73,1.62l3.44-8.28.2,8.66c1.18.07,2.41.11,3.69.1l1.4-5.65,1.78,5.53a85.41,85.41,0,0,0,17-3l-53-23.1A29.75,29.75,0,0,0,133,240.91Z" style="fill:#636FA4"></path><path d="M181.88,251.86a99.31,99.31,0,0,0,16.71-13.28l-5.14-5.1,7.07,3.09a68.25,68.25,0,0,0,4.42-5.27l-5.14-5.6,7.23,2.65q1.56-2.32,2.8-4.65l-9.72-6.53,12.25,1.12a48.26,48.26,0,0,0,3-11h0l-13.13-6.62,13.62,1.14c0-1,0-2,0-2.93l-7.6-1.59,7.45-1.12a53,53,0,0,0-1.06-7.06l-11.32-.42,10.4-3.24a58.76,58.76,0,0,0-8.6-18Z" style="fill:#636FA4"></path><path d="M203.63,249.21l-.8-6.56,3.63,5.86h0c1.05-.27,2.11-.57,3.17-.89l-1.46-4.78,3.15,4.25q2.58-.84,5.15-1.89l-2.58-5.92,5.49,4.64a50.77,50.77,0,0,0,9-5.34l-6.15-8.34,8.84,6.13a33.8,33.8,0,0,0,5.56-6.36l-6.39-7,8.05,4.25a31,31,0,0,0,1.84-4.14l-10.22-8,11.72,2.2a37.28,37.28,0,0,0,.48-6.11L234,208.66l8.05-.39a58.43,58.43,0,0,0-2.74-13.81s-23.11,42.92-57.38,57.4A107.27,107.27,0,0,0,203.63,249.21Z" style="fill:#636FA4"></path><path d="M195.59,261l2.09-2.51-1.24,2.85c.8.31,1.6.58,2.38.82l1.91-3.56.09,4.07a27,27,0,0,0,3.44.55l1-6.42,1.6,6.52a25.37,25.37,0,0,0,7.26-1.14l.19-5.05,1.56,4.45a28.33,28.33,0,0,0,2.8-1.25l-1.8-5.92,3.85,4.78a35.58,35.58,0,0,0,4.52-3.26l-2-3.8,3,2.95c.5-.45,1-.91,1.44-1.36l-1.44-2.18,2.31,1.31a42.35,42.35,0,0,0,5.58-7.12c-19.27,11.26-52.38,6.06-52.38,6.06A48.41,48.41,0,0,0,195.59,261Z" style="fill:#636FA4"></path><path d="M148.64,267.9l1.49-2.44-.36,2.84a24.07,24.07,0,0,0,3.17.79l.87-4.64.73,4.86a21.66,21.66,0,0,0,5-.05l.43-4.67,2,4.23a22.17,22.17,0,0,0,3.25-1l-1-3.9,2.32,3.33a25.59,25.59,0,0,0,2.47-1.3l-1.57-4.78,4.13,3.08c.79-.59,1.59-1.23,2.4-1.94l-1.73-2.44,2.67,1.59a55.9,55.9,0,0,0,8-9.52s-24.38,12.21-42.25,11.19A25.7,25.7,0,0,0,148.64,267.9Z" style="fill:#636FA4"></path><path d="M185.86,272.21l3.72-2.2-2.8,3.73a19.43,19.43,0,0,0,2.29,2.89l3.09-1.73-2.1,2.67a13.54,13.54,0,0,0,1.33,1.07l3.82-3.46-2,4.61a18.34,18.34,0,0,0,4.88,1.81l2.4-3.1-.66,3.4c.79.11,1.57.17,2.33.2l1.39-3.27,0,3.28a27.15,27.15,0,0,0,7.54-1.19c-17.57-7-29.13-27.18-29.13-27.18C182.05,262,183.58,268,185.86,272.21Z" style="fill:#636FA4"></path><path d="M170.87,262.77a7,7,0,1,0,7.27-6.75A7,7,0,0,0,170.87,262.77Z" style="fill:#636FA4"></path><path d="M170.87,262.77a7,7,0,1,0,7.27-6.75A7,7,0,0,0,170.87,262.77Z" style="fill:#636FA4;opacity:0.4"></path><path d="M177.15,256.77a7,7,0,1,0,7.27-6.76A7,7,0,0,0,177.15,256.77Z" style="fill:#636FA4"></path><path d="M177.15,256.77a7,7,0,1,0,7.27-6.76A7,7,0,0,0,177.15,256.77Z" style="fill:#636FA4;opacity:0.30000000000000004"></path><path d="M170.19,255.25a7,7,0,1,0,7.27-6.76A7,7,0,0,0,170.19,255.25Z" style="fill:#636FA4"></path><path d="M170.19,255.25a7,7,0,1,0,7.27-6.76A7,7,0,0,0,170.19,255.25Z" style="fill:#636FA4;opacity:0.2"></path><g style="opacity:0.4"><path d="M177.75,253.28s.66,47.45-19.55,98.25c-11.65,29.3-86.14,59.71-106.57,82.78h34s79.37-56.66,85.86-82.12c14.46-56.78,8.82-99.72,8.82-99.72Z"></path><path d="M177.75,253.28s.66,47.45-19.55,98.25c-11.65,29.3-86.14,59.71-106.57,82.78h34s79.37-56.66,85.86-82.12c14.46-56.78,8.82-99.72,8.82-99.72Z" style="opacity:0.30000000000000004"></path><path d="M152.83,213.81l8.68.07L153,217.1a33.78,33.78,0,0,0,2.93,11.1l9.11-1.61-7.38,4.91a35.53,35.53,0,0,0,2.3,3.44l5.42-1.2-3.71,3.33a47.11,47.11,0,0,0,5.74,5.6l5-3.36-3.5,4.55a72.93,72.93,0,0,0,13.25,8L163,184.58A56.53,56.53,0,0,0,156,197.51l3.6.84-4.28,1c-.5,1.47-1,3-1.34,4.64l8.72,1.26L153.25,208A39.43,39.43,0,0,0,152.83,213.81Z"></path><path d="M133,240.91l4-2.94-2.9,4.7a27,27,0,0,0,4.58,5l5.33-6-2.35,8.15a28.48,28.48,0,0,0,3.52,1.88l3.61-4.34-1.11,5.34a34.93,34.93,0,0,0,6.73,1.62l3.44-8.28.2,8.66c1.18.07,2.41.11,3.69.1l1.4-5.65,1.78,5.53a85.41,85.41,0,0,0,17-3l-53-23.1A29.75,29.75,0,0,0,133,240.91Z"></path><path d="M181.88,251.86a99.31,99.31,0,0,0,16.71-13.28l-5.14-5.1,7.07,3.09a68.25,68.25,0,0,0,4.42-5.27l-5.14-5.6,7.23,2.65q1.56-2.32,2.8-4.65l-9.72-6.53,12.25,1.12a48.26,48.26,0,0,0,3-11h0l-13.13-6.62,13.62,1.14c0-1,0-2,0-2.93l-7.6-1.59,7.45-1.12a53,53,0,0,0-1.06-7.06l-11.32-.42,10.4-3.24a58.76,58.76,0,0,0-8.6-18Z"></path><path d="M203.63,249.21l-.8-6.56,3.63,5.86h0c1.05-.27,2.11-.57,3.17-.89l-1.46-4.78,3.15,4.25q2.58-.84,5.15-1.89l-2.58-5.92,5.49,4.64a50.77,50.77,0,0,0,9-5.34l-6.15-8.34,8.84,6.13a33.8,33.8,0,0,0,5.56-6.36l-6.39-7,8.05,4.25a31,31,0,0,0,1.84-4.14l-10.22-8,11.72,2.2a37.28,37.28,0,0,0,.48-6.11L234,208.66l8.05-.39a58.43,58.43,0,0,0-2.74-13.81s-23.11,42.92-57.38,57.4A107.27,107.27,0,0,0,203.63,249.21Z"></path><path d="M195.59,261l2.09-2.51-1.24,2.85c.8.31,1.6.58,2.38.82l1.91-3.56.09,4.07a27,27,0,0,0,3.44.55l1-6.42,1.6,6.52a25.37,25.37,0,0,0,7.26-1.14l.19-5.05,1.56,4.45a28.33,28.33,0,0,0,2.8-1.25l-1.8-5.92,3.85,4.78a35.58,35.58,0,0,0,4.52-3.26l-2-3.8,3,2.95c.5-.45,1-.91,1.44-1.36l-1.44-2.18,2.31,1.31a42.35,42.35,0,0,0,5.58-7.12c-19.27,11.26-52.38,6.06-52.38,6.06A48.41,48.41,0,0,0,195.59,261Z"></path><path d="M148.64,267.9l1.49-2.44-.36,2.84a24.07,24.07,0,0,0,3.17.79l.87-4.64.73,4.86a21.66,21.66,0,0,0,5-.05l.43-4.67,2,4.23a22.17,22.17,0,0,0,3.25-1l-1-3.9,2.32,3.33a25.59,25.59,0,0,0,2.47-1.3l-1.57-4.78,4.13,3.08c.79-.59,1.59-1.23,2.4-1.94l-1.73-2.44,2.67,1.59a55.9,55.9,0,0,0,8-9.52s-24.38,12.21-42.25,11.19A25.7,25.7,0,0,0,148.64,267.9Z"></path><path d="M185.86,272.21l3.72-2.2-2.8,3.73a19.43,19.43,0,0,0,2.29,2.89l3.09-1.73-2.1,2.67a13.54,13.54,0,0,0,1.33,1.07l3.82-3.46-2,4.61a18.34,18.34,0,0,0,4.88,1.81l2.4-3.1-.66,3.4c.79.11,1.57.17,2.33.2l1.39-3.27,0,3.28a27.15,27.15,0,0,0,7.54-1.19c-17.57-7-29.13-27.18-29.13-27.18C182.05,262,183.58,268,185.86,272.21Z"></path><path d="M170.87,262.77a7,7,0,1,0,7.27-6.75A7,7,0,0,0,170.87,262.77Z"></path><path d="M170.87,262.77a7,7,0,1,0,7.27-6.75A7,7,0,0,0,170.87,262.77Z" style="opacity:0.4"></path><path d="M177.15,256.77a7,7,0,1,0,7.27-6.76A7,7,0,0,0,177.15,256.77Z"></path><path d="M177.15,256.77a7,7,0,1,0,7.27-6.76A7,7,0,0,0,177.15,256.77Z" style="opacity:0.30000000000000004"></path><path d="M170.19,255.25a7,7,0,1,0,7.27-6.76A7,7,0,0,0,170.19,255.25Z"></path><path d="M170.19,255.25a7,7,0,1,0,7.27-6.76A7,7,0,0,0,170.19,255.25Z" style="opacity:0.2"></path></g><g style="opacity:0.6000000000000001"><path d="M181.15,248.44c-3.26-8.2-18.17-46.64-18.17-63.86Z" style="fill:#636FA4"></path><path d="M183.59,266.48c0,.14,0,.31,0,.53a6.77,6.77,0,0,1-2.32,2.13c.15,7,.05,16-.7,26.58a1.27,1.27,0,0,1,0,.2h0a322.45,322.45,0,0,1-7.46,49.45c0,.11,0,.22-.08.33v0c-.49,2.13-1,4.29-1.57,6.46-1.39,5.45-6.12,12.33-12.7,19.78a3,3,0,0,0-.23.27l-.23.27h0q-2.34,2.63-5,5.33c-.1.12-.22.24-.34.36-12.93,13.3-30.15,27.6-43.95,38.43l-.78.61c-12.92,10.12-22.65,17.07-22.65,17.07H76.09s10.53-7.06,24.53-17.21c.17-.11.33-.23.49-.35,15.17-11,34.26-25.54,48.44-38.66l.14-.13q3-2.81,5.72-5.5c.14-.14.29-.28.43-.43,7.28-7.35,12.39-13.95,13.56-18.8.52-2.17,12-51.78,10.49-83.48a2.1,2.1,0,0,1,.06-.69,3.66,3.66,0,0,0,1.35-.66,10.21,10.21,0,0,0,2.22-2.18l0-.07s0,.11,0,.31Z" style="fill:#636FA4"></path><path d="M198.59,238.58a95.63,95.63,0,0,1-12.9,10.73,19.24,19.24,0,0,1-2.3.69,83.58,83.58,0,0,0,13.72-12.89Z" style="fill:#636FA4"></path><path d="M199.88,281.65c.91,0,1.77-.09,2.55-.18l-.27.63c-.76,0-1.54-.09-2.33-.2Z" style="fill:#636FA4"></path><path d="M203.63,249.21a109.63,109.63,0,0,1-15.13,2.31,7,7,0,0,1,1.06,1c-.18-.15-.76-.61-1.36-1a7.4,7.4,0,0,0-.81-.48l.37-.06c1.6-.24,8.26-1.3,15.7-3.2Z" style="fill:#636FA4"></path><path d="M200.52,236.57l-2.16-.95a73.73,73.73,0,0,0,4.68-6.39l1.9,2.07A68.25,68.25,0,0,1,200.52,236.57Z" style="fill:#636FA4"></path><path d="M211.06,280.92a27.15,27.15,0,0,1-7.54,1.19v-.77a26.12,26.12,0,0,0,3.85-.8,35.29,35.29,0,0,1-3.83-1.65h0c-4.82-2.37-12.82-7.4-16-15.72a4.37,4.37,0,0,1-.18-.46,6.44,6.44,0,0,0,.54-.4,8.15,8.15,0,0,0,2.79-3.78l0,0,0,0,.2.17a7,7,0,0,1-2.71,4C193.35,269,201.28,277,211.06,280.92Z" style="fill:#636FA4"></path><path d="M205.67,247.23c1.18-.33,2.37-.67,3.54-1l.43,1.42c-1.06.32-2.12.62-3.17.89h0Z" style="fill:#636FA4"></path><path d="M207,228.35l-2.79-1c1-1.73,2-3.54,2.92-5.42l2.67,1.79Q208.58,226,207,228.35Z" style="fill:#636FA4"></path><path d="M211,186.31a59.29,59.29,0,0,0-6.22-17.69h0l.31-1.11a58.76,58.76,0,0,1,8.6,18Z" style="fill:#636FA4"></path><path d="M208.39,263.25a38,38,0,0,0,5.82-2.48l-.05,1.4A25.42,25.42,0,0,1,208.39,263.25Z" style="fill:#636FA4"></path><path d="M215.32,207.32a48.26,48.26,0,0,1-3,11l-3.52-.32a47,47,0,0,0,2.22-7.72c.31-1.6.55-3.17.73-4.72l3.53,1.78Z" style="fill:#636FA4"></path><path d="M211.47,189l3.14.12a53,53,0,0,1,1.06,7.06l-3.51.53A63.12,63.12,0,0,0,211.47,189Z" style="fill:#636FA4"></path><path d="M212.19,198.14l3.63.76c0,1,0,1.94,0,2.93l-3.69-.31C212.17,200.37,212.19,199.24,212.19,198.14Z" style="fill:#636FA4"></path><path d="M210.39,245.83c1.89-.61,3.75-1.26,5.5-2l.59,1.35q-2.56,1.05-5.15,1.89Z" style="fill:#636FA4"></path><path d="M218.17,258.53l.54,1.79a28.33,28.33,0,0,1-2.8,1.25l-.5-1.43C216.33,259.63,217.26,259.09,218.17,258.53Z" style="fill:#636FA4"></path><path d="M224.39,254.21l.89,1.71a35.58,35.58,0,0,1-4.52,3.26l-1.22-1.52C221.24,256.56,222.89,255.39,224.39,254.21Z" style="fill:#636FA4"></path><path d="M226.75,252.26l1,1.45c-.45.45-.94.91-1.44,1.36l-1.31-1.3C225.59,253.26,226.18,252.76,226.75,252.26Z" style="fill:#636FA4"></path><path d="M219.39,243.92l-1.24-1c1-.44,1.88-.9,2.74-1.38a40.58,40.58,0,0,0,6.39-4.4l1.09,1.48A50.77,50.77,0,0,1,219.39,243.92Z" style="fill:#636FA4"></path><path d="M205.6,252.83c9.61-.5,20.34-2.31,28.56-7.11a42.35,42.35,0,0,1-5.58,7.12l-1.51-.86a34.07,34.07,0,0,0,2.76-2.7,10.41,10.41,0,0,0,1.08-1.37S224.13,252.1,205.6,252.83Z" style="fill:#636FA4"></path><path d="M235,228.22l1.64,1.79a33.8,33.8,0,0,1-5.56,6.36l-1.68-1.16A36,36,0,0,0,235,228.22Z" style="fill:#636FA4"></path><path d="M238.11,221.57l2,1.57a31,31,0,0,1-1.84,4.14l-2.14-1.13A31.43,31.43,0,0,0,238.11,221.57Z" style="fill:#636FA4"></path><path d="M240,208.37a49.28,49.28,0,0,0-2-11.68h0c.84-1.42,1.27-2.22,1.27-2.22A58.43,58.43,0,0,1,242,208.27Z" style="fill:#636FA4"></path><path d="M242.1,211.24a37.28,37.28,0,0,1-.48,6.11l-2.28-.43a35.67,35.67,0,0,0,.64-6.35Z" style="fill:#636FA4"></path><path d="M184.21,255.76a7,7,0,0,1-10.05,6.06,6.64,6.64,0,0,0,1.68.28,6.76,6.76,0,1,0,.5-13.52h-.21a5.88,5.88,0,0,1,1.33-.09A7,7,0,0,1,184.21,255.76Z" style="fill:#636FA4"></path></g><g style="opacity:0.5"><path d="M109.05,416.63l-.78.61c-1.34,0-2.69,0-4-.06-2.83-.05-5.66-.11-8.49-.25,2.83-.13,5.66-.19,8.49-.25Z"></path><path d="M102.82,406.86c-1.41.08-2.83.1-4.23.17l-4.25.08c-1.82,0-3.65.05-5.47.06l1-.62c1.48,0,3,0,4.46.07l4.25.08C100,406.75,101.41,406.79,102.82,406.86Z"></path><path d="M93.28,409,89,409.2l-3.56.07c.25-.14.48-.3.73-.46l2.83.07C90.46,408.93,91.86,409,93.28,409Z"></path><path d="M153.34,377.84c-.1.12-.22.24-.34.36-1.7,0-3.38-.09-5.07-.17C149.73,377.94,151.54,377.9,153.34,377.84Z"></path><path d="M158.78,372c-.16.17-.31.36-.46.54-.42,0-.85,0-1.27,0-2.83,0-5.65-.1-8.48-.25,2.83-.11,5.65-.18,8.48-.23C157.62,372,158.2,372,158.78,372Z"></path><path d="M173.14,345.37c0,.12,0,.24-.09.36-1.71,0-3.43-.09-5.14-.18C169.66,345.47,171.39,345.42,173.14,345.37Z"></path><path d="M176.71,319.37c-1.42.07-2.83.11-4.24.16l-3.9.09c0-.16.08-.32.13-.48l3.77.08C173.88,319.27,175.29,319.3,176.71,319.37Z"></path><path d="M180.62,295.72a1.27,1.27,0,0,1,0,.2c-.85,0-1.69-.06-2.53-.1Z"></path><path d="M173.47,316.19c-1.35.07-2.72.1-4.07.15,0-.11,0-.21.07-.31C170.8,316.09,172.14,316.12,173.47,316.19Z"></path></g></g><g id="freepik--Leaves--inject-25"><path d="M656.81,487.33c.37,1-1.35,2.6-2.42,1.82s-25.6-33.6-31.81-40.33a44,44,0,0,0-2.78,6.85c-1.07,3.56-3.27,14.48-5.29,17.94s-7.26,9.89-8.51,11.92c0,0,3.68-15.6,4.38-17.43s3.44-9.88,5.2-12.27,6.1-8,6.1-8l-2-2a10.43,10.43,0,0,0-4.54,4.6c-1.27,3-7.92,11.95-12,15.27s-13.43,12.71-19.75,15.51a52.81,52.81,0,0,1,7.91-12.4,173.63,173.63,0,0,1,16.46-16.75c2.46-2.11,9.75-7.43,10.2-7.43s-2.33-2.5-2.33-2.5A125.13,125.13,0,0,1,604.39,450c-5.43,3.25-18.74,10.06-20.26,11.07s-15.74,9.17-17.35,10.68c0,0,3.21-6.85,8.61-10.78s14.54-10.42,18.32-11.93,20.54-8,20.54-8L608,435.6s-11.22,8.21-14.47,9.67-17.07,6.91-21,8.7-14.79,5.81-14.79,5.81,13-11.29,16.22-13.19,17-7.16,19.88-8,13.1-3.95,13.1-3.95l-6-5.3a10.22,10.22,0,0,1-6.14,3.42c-4.26.84-14.76,3.13-16,3.95s-13,6.12-14.4,6.63S554,446.93,553.71,447s14.49-11,18.36-12.61S588,427,599.55,428.09l-5.47-5.22s-10.43-.35-19.58,2.77-26.06,7.82-30.24,7.32c0,0,8.53-6.45,14-8.49s18.59-4,22.45-3.88,12.07.31,12.07.31l-1.69-1.42L562,415.92c-4.32-.53-22.93-2.42-23.71-1.8a55,55,0,0,1,16.65-2.8c8.6.07,30,4.62,31.89,5.54a13.21,13.21,0,0,0-4.5-2.5c-2.36-.63-11.71-4.13-14.19-4.94s-13.55-5.57-17.6-7.25-13.71-5.07-13.71-5.07a64.39,64.39,0,0,1,18.22,2.41c10.06,2.8,29.17,13.46,30.89,14.73,0,0-16.78-12.8-17.73-14.23s-12.45-9.35-13.85-10.12-16.21-11.58-16.21-11.58,16.29,4.86,22.75,8.6,21.75,19.5,27.12,26.66c0,0-5.69-11.05-7-15.13-2-6.31-4.73-14.54-5.15-16.86s-3.28-13-.7-24.82c0,0,4,20.74,6.64,25.54s10.66,29.67,9.39,35.28l2.51,2.51s-2.49-23-3.95-29.73-3.39-16.23-2.94-19.67,1.93-12.39,1.93-12.39,1.37,6.75,2.08,10.84,6.81,23.71,6.07,27.55-.87,21.1-1.87,24.67l5.1,4.93a102.68,102.68,0,0,1-.43-14.74c.47-6.13.45-31,1-34s1.52-15.23,1.52-15.23,2.54,14.29,2.75,19.94,4.17,21.23-3.75,45.16l4.78,4.17s2.07-17.65,3.59-24.2,5.65-36.82,7-40c0,0,1,11.63,1,13.72s.89,15.95-1.84,23.93-8.61,27.52-8.61,27.52l3.51,3.08s5.31-22.33,6.64-25.69,3.59-9.86,3.9-12.12,7.75-22.16,8.9-24c0,0-3.12,28.75-6,36.46-1.28,3.44-7,19.77-12,26.64l4.84,4.44s5.29-20.22,7.69-25.64,11-27.28,16.82-34.13c0,0-5.7,24.39-9.72,32.67s-13.78,28-13.78,28l2.26,2.08s10.48-21.53,15.85-29.8,15.22-21.71,15.22-21.71-4.12,13.72-7.2,21.42c-5.36,13.38-20.51,28.88-22.69,31.08l1.51,1.62s7.77-5.95,18.51-18,20.39-15.2,20.39-15.2-11.76,23-37.27,34.84l.76.8s13.37-5.87,17.52-6.5,17.51-3.24,17.51-3.24-9.91,6.36-17.33,9-16.81,2.07-16.81,2.07S654.79,482.15,656.81,487.33Z" style="fill:#636FA4"></path><path d="M656.81,487.33c.37,1-1.35,2.6-2.42,1.82s-25.6-33.6-31.81-40.33a44,44,0,0,0-2.78,6.85c-1.07,3.56-3.27,14.48-5.29,17.94s-7.26,9.89-8.51,11.92c0,0,3.68-15.6,4.38-17.43s3.44-9.88,5.2-12.27,6.1-8,6.1-8l-2-2a10.43,10.43,0,0,0-4.54,4.6c-1.27,3-7.92,11.95-12,15.27s-13.43,12.71-19.75,15.51a52.81,52.81,0,0,1,7.91-12.4,173.63,173.63,0,0,1,16.46-16.75c2.46-2.11,9.75-7.43,10.2-7.43s-2.33-2.5-2.33-2.5A125.13,125.13,0,0,1,604.39,450c-5.43,3.25-18.74,10.06-20.26,11.07s-15.74,9.17-17.35,10.68c0,0,3.21-6.85,8.61-10.78s14.54-10.42,18.32-11.93,20.54-8,20.54-8L608,435.6s-11.22,8.21-14.47,9.67-17.07,6.91-21,8.7-14.79,5.81-14.79,5.81,13-11.29,16.22-13.19,17-7.16,19.88-8,13.1-3.95,13.1-3.95l-6-5.3a10.22,10.22,0,0,1-6.14,3.42c-4.26.84-14.76,3.13-16,3.95s-13,6.12-14.4,6.63S554,446.93,553.71,447s14.49-11,18.36-12.61S588,427,599.55,428.09l-5.47-5.22s-10.43-.35-19.58,2.77-26.06,7.82-30.24,7.32c0,0,8.53-6.45,14-8.49s18.59-4,22.45-3.88,12.07.31,12.07.31l-1.69-1.42L562,415.92c-4.32-.53-22.93-2.42-23.71-1.8a55,55,0,0,1,16.65-2.8c8.6.07,30,4.62,31.89,5.54a13.21,13.21,0,0,0-4.5-2.5c-2.36-.63-11.71-4.13-14.19-4.94s-13.55-5.57-17.6-7.25-13.71-5.07-13.71-5.07a64.39,64.39,0,0,1,18.22,2.41c10.06,2.8,29.17,13.46,30.89,14.73,0,0-16.78-12.8-17.73-14.23s-12.45-9.35-13.85-10.12-16.21-11.58-16.21-11.58,16.29,4.86,22.75,8.6,21.75,19.5,27.12,26.66c0,0-5.69-11.05-7-15.13-2-6.31-4.73-14.54-5.15-16.86s-3.28-13-.7-24.82c0,0,4,20.74,6.64,25.54s10.66,29.67,9.39,35.28l2.51,2.51s-2.49-23-3.95-29.73-3.39-16.23-2.94-19.67,1.93-12.39,1.93-12.39,1.37,6.75,2.08,10.84,6.81,23.71,6.07,27.55-.87,21.1-1.87,24.67l5.1,4.93a102.68,102.68,0,0,1-.43-14.74c.47-6.13.45-31,1-34s1.52-15.23,1.52-15.23,2.54,14.29,2.75,19.94,4.17,21.23-3.75,45.16l4.78,4.17s2.07-17.65,3.59-24.2,5.65-36.82,7-40c0,0,1,11.63,1,13.72s.89,15.95-1.84,23.93-8.61,27.52-8.61,27.52l3.51,3.08s5.31-22.33,6.64-25.69,3.59-9.86,3.9-12.12,7.75-22.16,8.9-24c0,0-3.12,28.75-6,36.46-1.28,3.44-7,19.77-12,26.64l4.84,4.44s5.29-20.22,7.69-25.64,11-27.28,16.82-34.13c0,0-5.7,24.39-9.72,32.67s-13.78,28-13.78,28l2.26,2.08s10.48-21.53,15.85-29.8,15.22-21.71,15.22-21.71-4.12,13.72-7.2,21.42c-5.36,13.38-20.51,28.88-22.69,31.08l1.51,1.62s7.77-5.95,18.51-18,20.39-15.2,20.39-15.2-11.76,23-37.27,34.84l.76.8s13.37-5.87,17.52-6.5,17.51-3.24,17.51-3.24-9.91,6.36-17.33,9-16.81,2.07-16.81,2.07S654.79,482.15,656.81,487.33Z" style="opacity:0.6000000000000001"></path><path d="M89.44,421.86c-.65.05-1.33-1.29-.66-1.79s24.93-9.3,30.12-11.82a28.75,28.75,0,0,0-3.62-2.93c-2-1.29-8.13-4.61-9.85-6.46s-4.64-6.18-5.63-7.31c0,0,8.73,5.07,9.71,5.82s5.33,3.88,6.44,5.38,3.71,5.14,3.71,5.14l1.56-.83a6.58,6.58,0,0,0-1.94-3.57,39.48,39.48,0,0,1-7-10c-1.26-3.08-5.21-10.43-5.74-14.75a33.61,33.61,0,0,1,6,7,109.48,109.48,0,0,1,7.09,13,61.7,61.7,0,0,1,2.62,7.51c-.08.26,1.93-1,1.93-1a78.59,78.59,0,0,1-2.68-8.21c-1-3.86-2.64-13.13-3-14.23s-2.65-11.17-3.27-12.41a20,20,0,0,1,4.92,7.15c1.38,4,3.63,10.67,3.85,13.23s1,13.83,1,13.83l4.45-2.76s-2.91-8.26-3.19-10.49-1-11.55-1.42-14.23-.81-10-.81-10,4.44,9.87,5,12.18a111.88,111.88,0,0,1,1.19,13.45c0,1.91,0,8.62,0,8.62l4.3-2.67a6.47,6.47,0,0,1-.95-4.33c.28-2.72.82-9.47.55-10.38s-1.31-9-1.37-9.89-.27-6.9-.27-7.11,4,10.75,4.24,13.37,1.59,11-1.19,17.72l4.14-2.34a39.79,39.79,0,0,0,1.91-12.31c-.22-6.09,0-17.14,1.11-19.57,0,0,2.33,6.32,2.55,10a59.06,59.06,0,0,1-1.76,14.25c-.8,2.3-2.39,7.22-2.39,7.22l1.16-.77s6.36-14.38,7.46-16.89,5.65-13.38,5.42-14a34.4,34.4,0,0,1-1.36,10.54c-1.61,5.17-8.27,17.27-9.16,18.22A8.31,8.31,0,0,0,147,390.3c.81-1.3,4.63-6.3,5.57-7.65s5.83-7.15,7.58-9.29,5.56-7.34,5.56-7.34A40,40,0,0,1,161,376.56c-3.52,5.56-13.44,15.14-14.52,15.94,0,0,10.78-7.78,11.82-8.09s7.91-5.8,8.63-6.5,9.94-7.66,9.94-7.66-5.9,8.94-9.34,12.15-15.72,9.54-21,11.48a101.2,101.2,0,0,1,10.39-1.44c4.17,0,9.63-.2,11.1,0s8.44.4,15.1,4.11c0,0-13.24-1.36-16.61-.66s-19.83,1-23-.78l-2,1.05s14.35,2.71,18.65,3.05,10.4.92,12.39,1.82,7.12,3.43,7.12,3.43-4.32-.41-6.92-.73-15.53-.22-17.71-1.37-12.57-4.38-14.54-5.63l-3.9,2.18a63.94,63.94,0,0,1,9,2.43c3.61,1.4,18.6,5.92,20.34,6.8s8.9,3.7,8.9,3.7-9.07-1.08-12.52-2-13.56-1.37-26.54-10.51l-3.38,2.12s10.26,4.47,13.93,6.58,21.16,10.13,22.84,11.54c0,0-7.2-1.49-8.45-1.91s-9.78-2.37-14.09-5.48-15-10.21-15-10.21l-2.5,1.55s12.5,7.28,14.28,8.7a53.09,53.09,0,0,0,6.59,4.56,152.23,152.23,0,0,1,12.88,9.76S146,419.4,141.91,416.28c-1.85-1.4-10.64-7.83-13.87-12.11l-3.56,2.11s11.22,6.88,14,9.31S153,427.22,156,432c0,0-13.65-7.88-17.91-11.82s-14.38-13.43-14.38-13.43l-1.67,1s11.07,10.25,15.07,15,10.32,13.15,10.32,13.15-7.53-5-11.61-8.26c-7.09-5.67-13.66-17.64-14.59-19.35l-1.25.62a95.33,95.33,0,0,0,7.47,14.44c5.31,8.68,5.45,15.07,5.45,15.07a54.1,54.1,0,0,1-14.2-28.83l-.62.31s1.1,9.13.71,11.75-1.24,11.15-1.24,11.15a68.28,68.28,0,0,1-2.26-12.1,31.28,31.28,0,0,1,1.82-10.51S92.93,421.59,89.44,421.86Z" style="fill:#636FA4"></path><path d="M89.44,421.86c-.65.05-1.33-1.29-.66-1.79s24.93-9.3,30.12-11.82a28.75,28.75,0,0,0-3.62-2.93c-2-1.29-8.13-4.61-9.85-6.46s-4.64-6.18-5.63-7.31c0,0,8.73,5.07,9.71,5.82s5.33,3.88,6.44,5.38,3.71,5.14,3.71,5.14l1.56-.83a6.58,6.58,0,0,0-1.94-3.57,39.48,39.48,0,0,1-7-10c-1.26-3.08-5.21-10.43-5.74-14.75a33.61,33.61,0,0,1,6,7,109.48,109.48,0,0,1,7.09,13,61.7,61.7,0,0,1,2.62,7.51c-.08.26,1.93-1,1.93-1a78.59,78.59,0,0,1-2.68-8.21c-1-3.86-2.64-13.13-3-14.23s-2.65-11.17-3.27-12.41a20,20,0,0,1,4.92,7.15c1.38,4,3.63,10.67,3.85,13.23s1,13.83,1,13.83l4.45-2.76s-2.91-8.26-3.19-10.49-1-11.55-1.42-14.23-.81-10-.81-10,4.44,9.87,5,12.18a111.88,111.88,0,0,1,1.19,13.45c0,1.91,0,8.62,0,8.62l4.3-2.67a6.47,6.47,0,0,1-.95-4.33c.28-2.72.82-9.47.55-10.38s-1.31-9-1.37-9.89-.27-6.9-.27-7.11,4,10.75,4.24,13.37,1.59,11-1.19,17.72l4.14-2.34a39.79,39.79,0,0,0,1.91-12.31c-.22-6.09,0-17.14,1.11-19.57,0,0,2.33,6.32,2.55,10a59.06,59.06,0,0,1-1.76,14.25c-.8,2.3-2.39,7.22-2.39,7.22l1.16-.77s6.36-14.38,7.46-16.89,5.65-13.38,5.42-14a34.4,34.4,0,0,1-1.36,10.54c-1.61,5.17-8.27,17.27-9.16,18.22A8.31,8.31,0,0,0,147,390.3c.81-1.3,4.63-6.3,5.57-7.65s5.83-7.15,7.58-9.29,5.56-7.34,5.56-7.34A40,40,0,0,1,161,376.56c-3.52,5.56-13.44,15.14-14.52,15.94,0,0,10.78-7.78,11.82-8.09s7.91-5.8,8.63-6.5,9.94-7.66,9.94-7.66-5.9,8.94-9.34,12.15-15.72,9.54-21,11.48a101.2,101.2,0,0,1,10.39-1.44c4.17,0,9.63-.2,11.1,0s8.44.4,15.1,4.11c0,0-13.24-1.36-16.61-.66s-19.83,1-23-.78l-2,1.05s14.35,2.71,18.65,3.05,10.4.92,12.39,1.82,7.12,3.43,7.12,3.43-4.32-.41-6.92-.73-15.53-.22-17.71-1.37-12.57-4.38-14.54-5.63l-3.9,2.18a63.94,63.94,0,0,1,9,2.43c3.61,1.4,18.6,5.92,20.34,6.8s8.9,3.7,8.9,3.7-9.07-1.08-12.52-2-13.56-1.37-26.54-10.51l-3.38,2.12s10.26,4.47,13.93,6.58,21.16,10.13,22.84,11.54c0,0-7.2-1.49-8.45-1.91s-9.78-2.37-14.09-5.48-15-10.21-15-10.21l-2.5,1.55s12.5,7.28,14.28,8.7a53.09,53.09,0,0,0,6.59,4.56,152.23,152.23,0,0,1,12.88,9.76S146,419.4,141.91,416.28c-1.85-1.4-10.64-7.83-13.87-12.11l-3.56,2.11s11.22,6.88,14,9.31S153,427.22,156,432c0,0-13.65-7.88-17.91-11.82s-14.38-13.43-14.38-13.43l-1.67,1s11.07,10.25,15.07,15,10.32,13.15,10.32,13.15-7.53-5-11.61-8.26c-7.09-5.67-13.66-17.64-14.59-19.35l-1.25.62a95.33,95.33,0,0,0,7.47,14.44c5.31,8.68,5.45,15.07,5.45,15.07a54.1,54.1,0,0,1-14.2-28.83l-.62.31s1.1,9.13.71,11.75-1.24,11.15-1.24,11.15a68.28,68.28,0,0,1-2.26-12.1,31.28,31.28,0,0,1,1.82-10.51S92.93,421.59,89.44,421.86Z" style="opacity:0.6000000000000001"></path><path d="M67.39,458.56c.26,1,2.63,1.32,3,.06s1-42.22,2.13-51.32a44.52,44.52,0,0,1,6.27,3.92c3,2.25,11.13,9.81,14.8,11.43s11.68,3.76,13.88,4.67c0,0-12.13-10.48-13.76-11.55s-8.58-6-11.4-6.89S72.7,406,72.7,406l.44-2.77a10.44,10.44,0,0,1,6.37,1.06c2.79,1.69,13.42,5,18.69,5.34s18.33,2.42,25.09,1a53,53,0,0,0-13.68-5.4,172.39,172.39,0,0,0-23.15-3.92c-3.23-.27-12.26-.31-12.62,0s.43-3.4.43-3.4A124.38,124.38,0,0,0,88,397.59c6.3-.55,21.08-2.83,22.9-2.9s18.13-1.81,20.32-1.52c0,0-6.62-3.67-13.29-3.69s-17.89.08-21.84,1.07-21.3,5.6-21.3,5.6L76.6,388s13.91.08,17.4-.64,17.88-4.41,22.09-5.25,15.39-3.95,15.39-3.95-17.13-1.55-20.88-1.19-17.93,4.15-20.79,5.17-12.94,4.49-12.94,4.49l1.79-7.83a10.22,10.22,0,0,0,7-.82c3.94-1.83,13.79-6.13,15.3-6.2s14.15-2.69,15.55-3.07,10.49-3.16,10.8-3.27S109.09,365,105,366s-17.26,3.29-26,11l1.37-7.43s8.25-6.4,17.49-9.24,25.7-8.94,28.79-11.79c0,0-10.69-.23-16.36,1.36s-17.42,7.63-20.46,10-9.61,7.32-9.61,7.32l.55-2.15,21.48-19.94c3.2-3,17.17-15.39,18.16-15.36a55.27,55.27,0,0,0-15.13,7.5c-6.92,5.1-21.62,21.35-22.59,23.19a13.32,13.32,0,0,1,2.18-4.67c1.54-1.9,7.06-10.21,8.6-12.31s7.71-12.46,10-16.2,8.13-12.15,8.13-12.15a64.34,64.34,0,0,0-13.34,12.64c-6.52,8.17-15.75,28-16.4,30,0,0,6.1-20.21,6-21.93s4.6-14.87,5.28-16.31,6.35-18.88,6.35-18.88S89.24,314.19,86.2,321s-6.19,28.54-6.35,37.5c0,0-1.86-12.29-3.22-16.35-2.1-6.26-4.69-14.55-5.71-16.67S66,313,56.94,305c0,0,8.89,19.16,9.59,24.58s8.76,30.28,13.08,34.09l-.56,3.5S67.55,347,64.81,340.74s-6.76-15.14-9.14-17.66-8.83-8.91-8.83-8.91,2.85,6.28,4.67,10,8.38,23.2,11.23,25.87,13.08,16.59,16,18.9l-1.25,7a102.16,102.16,0,0,0-8.29-12.2c-4-4.69-18.52-24.84-20.74-27s-10.16-11.44-10.16-11.44,6.32,13.06,9.46,17.76,9.07,19.65,29.51,34.38l-1.43,6.18s-12-13.08-17.09-17.5-26.16-26.51-29.15-28.3c0,0,6,10,7.24,11.69S45.44,363,52.34,367.81s23.11,17.25,23.11,17.25l-1,4.55S57,374.63,54,372.69s-8.69-5.88-10.27-7.53-19.26-13.41-21.31-14.27c0,0,19.39,21.47,26.21,26,3,2.05,17.26,11.92,25.35,14.55l-1.32,6.43s-16.14-13.28-21.26-16.27S26.45,366,17.74,363.86c0,0,18.91,16.41,27,20.76s27.6,14.63,27.6,14.63l-.62,3S50.63,391,41.43,387.4s-25.06-8.66-25.06-8.66,11.39,8.7,18.4,13.13c12.18,7.7,33.54,11.38,36.6,11.88l-.28,2.2s-9.78-.27-25.55-3.74-25.43-.37-25.43-.37,23,11.74,50.62,6.38l-.15,1.1s-14.27,3.08-18,5S36.49,422,36.49,422s11.76-.66,19.32-2.87,14.83-8.17,14.83-8.17S66,453.18,67.39,458.56Z" style="fill:#636FA4"></path><path d="M67.39,458.56c.26,1,2.63,1.32,3,.06s1-42.22,2.13-51.32a44.52,44.52,0,0,1,6.27,3.92c3,2.25,11.13,9.81,14.8,11.43s11.68,3.76,13.88,4.67c0,0-12.13-10.48-13.76-11.55s-8.58-6-11.4-6.89S72.7,406,72.7,406l.44-2.77a10.44,10.44,0,0,1,6.37,1.06c2.79,1.69,13.42,5,18.69,5.34s18.33,2.42,25.09,1a53,53,0,0,0-13.68-5.4,172.39,172.39,0,0,0-23.15-3.92c-3.23-.27-12.26-.31-12.62,0s.43-3.4.43-3.4A124.38,124.38,0,0,0,88,397.59c6.3-.55,21.08-2.83,22.9-2.9s18.13-1.81,20.32-1.52c0,0-6.62-3.67-13.29-3.69s-17.89.08-21.84,1.07-21.3,5.6-21.3,5.6L76.6,388s13.91.08,17.4-.64,17.88-4.41,22.09-5.25,15.39-3.95,15.39-3.95-17.13-1.55-20.88-1.19-17.93,4.15-20.79,5.17-12.94,4.49-12.94,4.49l1.79-7.83a10.22,10.22,0,0,0,7-.82c3.94-1.83,13.79-6.13,15.3-6.2s14.15-2.69,15.55-3.07,10.49-3.16,10.8-3.27S109.09,365,105,366s-17.26,3.29-26,11l1.37-7.43s8.25-6.4,17.49-9.24,25.7-8.94,28.79-11.79c0,0-10.69-.23-16.36,1.36s-17.42,7.63-20.46,10-9.61,7.32-9.61,7.32l.55-2.15,21.48-19.94c3.2-3,17.17-15.39,18.16-15.36a55.27,55.27,0,0,0-15.13,7.5c-6.92,5.1-21.62,21.35-22.59,23.19a13.32,13.32,0,0,1,2.18-4.67c1.54-1.9,7.06-10.21,8.6-12.31s7.71-12.46,10-16.2,8.13-12.15,8.13-12.15a64.34,64.34,0,0,0-13.34,12.64c-6.52,8.17-15.75,28-16.4,30,0,0,6.1-20.21,6-21.93s4.6-14.87,5.28-16.31,6.35-18.88,6.35-18.88S89.24,314.19,86.2,321s-6.19,28.54-6.35,37.5c0,0-1.86-12.29-3.22-16.35-2.1-6.26-4.69-14.55-5.71-16.67S66,313,56.94,305c0,0,8.89,19.16,9.59,24.58s8.76,30.28,13.08,34.09l-.56,3.5S67.55,347,64.81,340.74s-6.76-15.14-9.14-17.66-8.83-8.91-8.83-8.91,2.85,6.28,4.67,10,8.38,23.2,11.23,25.87,13.08,16.59,16,18.9l-1.25,7a102.16,102.16,0,0,0-8.29-12.2c-4-4.69-18.52-24.84-20.74-27s-10.16-11.44-10.16-11.44,6.32,13.06,9.46,17.76,9.07,19.65,29.51,34.38l-1.43,6.18s-12-13.08-17.09-17.5-26.16-26.51-29.15-28.3c0,0,6,10,7.24,11.69S45.44,363,52.34,367.81s23.11,17.25,23.11,17.25l-1,4.55S57,374.63,54,372.69s-8.69-5.88-10.27-7.53-19.26-13.41-21.31-14.27c0,0,19.39,21.47,26.21,26,3,2.05,17.26,11.92,25.35,14.55l-1.32,6.43s-16.14-13.28-21.26-16.27S26.45,366,17.74,363.86c0,0,18.91,16.41,27,20.76s27.6,14.63,27.6,14.63l-.62,3S50.63,391,41.43,387.4s-25.06-8.66-25.06-8.66,11.39,8.7,18.4,13.13c12.18,7.7,33.54,11.38,36.6,11.88l-.28,2.2s-9.78-.27-25.55-3.74-25.43-.37-25.43-.37,23,11.74,50.62,6.38l-.15,1.1s-14.27,3.08-18,5S36.49,422,36.49,422s11.76-.66,19.32-2.87,14.83-8.17,14.83-8.17S66,453.18,67.39,458.56Z" style="opacity:0.6000000000000001"></path><path d="M573.7,454.88c.6-.18.75-1.61,0-1.83s-25.55.13-31.08-.37a27.87,27.87,0,0,1,2.26-3.86c1.31-1.82,5.73-6.91,6.65-9.16s2.06-7.13,2.57-8.47c0,0-6.12,7.52-6.74,8.53s-3.46,5.29-4,7-1.58,5.88-1.58,5.88l-1.68-.22a6.29,6.29,0,0,1,.53-3.87,37.89,37.89,0,0,0,2.89-11.4c.08-3.19,1.13-11.13.13-15.19a32,32,0,0,0-3,8.37,104.37,104.37,0,0,0-2,14.07,61.71,61.71,0,0,0,.2,7.63c.17.22-2.06-.19-2.06-.19a76.23,76.23,0,0,0-.38-8.29c-.45-3.8-2.1-12.7-2.18-13.8s-1.41-10.92-1.28-12.26a19.32,19.32,0,0,0-2,8.11c.11,4,.37,10.81,1,13.18s3.77,12.79,3.77,12.79l-4.93-1s-.21-8.41-.71-10.5-3-10.74-3.57-13.27-2.67-9.23-2.67-9.23-.63,10.38-.34,12.64a106.88,106.88,0,0,0,3.51,12.48c.67,1.71,2.94,7.74,2.94,7.74l-4.77-.93a6.2,6.2,0,0,0-.62-4.21c-1.17-2.35-3.95-8.23-4-9.14s-1.89-8.51-2.14-9.35-2.1-6.29-2.18-6.47.07,11,.74,13.45,2.31,10.38,7.1,15.51l-4.51-.7a38.16,38.16,0,0,1-5.9-10.41c-1.88-5.54-5.88-15.37-7.66-17.19,0,0,.06,6.47,1.12,9.86a55.81,55.81,0,0,0,6.43,12.2c1.5,1.8,4.6,5.67,4.6,5.67l-1.31-.29s-10.6-10.75-12.44-12.63-9.63-10.1-9.62-10.7a33.2,33.2,0,0,0,4.81,9c3.2,4.1,13.3,12.69,14.43,13.25a8.1,8.1,0,0,1-2.87-1.24c-1.17-.9-6.3-4.09-7.6-5s-7.67-4.43-10-5.76-7.5-4.7-7.5-4.7a38.83,38.83,0,0,0,7.89,7.84c5.05,3.8,17.21,9,18.46,9.38,0,0-12.33-3.32-13.37-3.25s-9.07-2.51-10-2.9-11.53-3.5-11.53-3.5,8.34,6,12.52,7.73,17.37,3.23,22.79,3.16a97.52,97.52,0,0,0-9.83,2.25c-3.75,1.38-8.71,3.09-10,3.75A35.17,35.17,0,0,0,481,464s11.42-5.73,14.69-6.25,18.15-5.84,20.37-8.52l2.13.27s-12,7.32-15.7,9.09-9,4.36-10.52,5.85-5.23,5.5-5.23,5.5,3.75-1.84,6-3,13.88-5.49,15.44-7.26,9.8-8.21,11.14-10l4.25.62a61.54,61.54,0,0,0-7.23,5.24c-2.77,2.49-14.69,11.65-16,13s-6.74,6.35-6.74,6.35,7.78-4.06,10.57-6,11.72-5.84,20.26-18.46l3.76.75s-7.69,7.51-10.27,10.65-15.56,16.3-16.59,18.14c0,0,6-3.79,6.94-4.59s8-5.46,10.79-9.72,10-14.29,10-14.29l2.77.55s-8.75,10.79-9.87,12.67a50.82,50.82,0,0,1-4.36,6.34A143.92,143.92,0,0,0,509.4,484s12.63-12.11,15.28-16.32c1.18-1.88,6.89-10.65,8.33-15.59l3.92.68s-7.74,10-9.46,13.15-9,15.35-10.14,20.66c0,0,9.58-11.73,12.07-16.72S537.74,453,537.74,453l1.83.31s-6.45,13-8.43,18.6-4.79,15.32-4.79,15.32,5.06-7.05,7.61-11.37c4.44-7.5,6.27-20.49,6.52-22.35l1.33.13A91.24,91.24,0,0,1,540,469.11c-1.82,9.6.23,15.38.23,15.38a51.86,51.86,0,0,0,2.94-30.72l.67.07s2.12,8.57,3.35,10.79,4.92,9.6,4.92,9.6A66,66,0,0,0,550,462.59a30,30,0,0,0-5.21-8.82S570.47,455.82,573.7,454.88Z" style="fill:#636FA4"></path><path d="M573.7,454.88c.6-.18.75-1.61,0-1.83s-25.55.13-31.08-.37a27.87,27.87,0,0,1,2.26-3.86c1.31-1.82,5.73-6.91,6.65-9.16s2.06-7.13,2.57-8.47c0,0-6.12,7.52-6.74,8.53s-3.46,5.29-4,7-1.58,5.88-1.58,5.88l-1.68-.22a6.29,6.29,0,0,1,.53-3.87,37.89,37.89,0,0,0,2.89-11.4c.08-3.19,1.13-11.13.13-15.19a32,32,0,0,0-3,8.37,104.37,104.37,0,0,0-2,14.07,61.71,61.71,0,0,0,.2,7.63c.17.22-2.06-.19-2.06-.19a76.23,76.23,0,0,0-.38-8.29c-.45-3.8-2.1-12.7-2.18-13.8s-1.41-10.92-1.28-12.26a19.32,19.32,0,0,0-2,8.11c.11,4,.37,10.81,1,13.18s3.77,12.79,3.77,12.79l-4.93-1s-.21-8.41-.71-10.5-3-10.74-3.57-13.27-2.67-9.23-2.67-9.23-.63,10.38-.34,12.64a106.88,106.88,0,0,0,3.51,12.48c.67,1.71,2.94,7.74,2.94,7.74l-4.77-.93a6.2,6.2,0,0,0-.62-4.21c-1.17-2.35-3.95-8.23-4-9.14s-1.89-8.51-2.14-9.35-2.1-6.29-2.18-6.47.07,11,.74,13.45,2.31,10.38,7.1,15.51l-4.51-.7a38.16,38.16,0,0,1-5.9-10.41c-1.88-5.54-5.88-15.37-7.66-17.19,0,0,.06,6.47,1.12,9.86a55.81,55.81,0,0,0,6.43,12.2c1.5,1.8,4.6,5.67,4.6,5.67l-1.31-.29s-10.6-10.75-12.44-12.63-9.63-10.1-9.62-10.7a33.2,33.2,0,0,0,4.81,9c3.2,4.1,13.3,12.69,14.43,13.25a8.1,8.1,0,0,1-2.87-1.24c-1.17-.9-6.3-4.09-7.6-5s-7.67-4.43-10-5.76-7.5-4.7-7.5-4.7a38.83,38.83,0,0,0,7.89,7.84c5.05,3.8,17.21,9,18.46,9.38,0,0-12.33-3.32-13.37-3.25s-9.07-2.51-10-2.9-11.53-3.5-11.53-3.5,8.34,6,12.52,7.73,17.37,3.23,22.79,3.16a97.52,97.52,0,0,0-9.83,2.25c-3.75,1.38-8.71,3.09-10,3.75A35.17,35.17,0,0,0,481,464s11.42-5.73,14.69-6.25,18.15-5.84,20.37-8.52l2.13.27s-12,7.32-15.7,9.09-9,4.36-10.52,5.85-5.23,5.5-5.23,5.5,3.75-1.84,6-3,13.88-5.49,15.44-7.26,9.8-8.21,11.14-10l4.25.62a61.54,61.54,0,0,0-7.23,5.24c-2.77,2.49-14.69,11.65-16,13s-6.74,6.35-6.74,6.35,7.78-4.06,10.57-6,11.72-5.84,20.26-18.46l3.76.75s-7.69,7.51-10.27,10.65-15.56,16.3-16.59,18.14c0,0,6-3.79,6.94-4.59s8-5.46,10.79-9.72,10-14.29,10-14.29l2.77.55s-8.75,10.79-9.87,12.67a50.82,50.82,0,0,1-4.36,6.34A143.92,143.92,0,0,0,509.4,484s12.63-12.11,15.28-16.32c1.18-1.88,6.89-10.65,8.33-15.59l3.92.68s-7.74,10-9.46,13.15-9,15.35-10.14,20.66c0,0,9.58-11.73,12.07-16.72S537.74,453,537.74,453l1.83.31s-6.45,13-8.43,18.6-4.79,15.32-4.79,15.32,5.06-7.05,7.61-11.37c4.44-7.5,6.27-20.49,6.52-22.35l1.33.13A91.24,91.24,0,0,1,540,469.11c-1.82,9.6.23,15.38.23,15.38a51.86,51.86,0,0,0,2.94-30.72l.67.07s2.12,8.57,3.35,10.79,4.92,9.6,4.92,9.6A66,66,0,0,0,550,462.59a30,30,0,0,0-5.21-8.82S570.47,455.82,573.7,454.88Z" style="opacity:0.6000000000000001"></path><path d="M698.29,463.58c.49.76,2.53.39,2.53-.76s-10.49-35.3-12-43.14a39.16,39.16,0,0,1,6.25,1.57c3.06,1.07,11.87,5.14,15.35,5.5s10.7,0,12.77.14c0,0-12.88-5.43-14.52-5.88s-8.72-2.66-11.31-2.65-8.77.19-8.77.19l-.38-2.42a9.08,9.08,0,0,1,5.57-.83c2.76.65,12.48.57,16.93-.6s15.86-2.92,21.07-5.93A46,46,0,0,0,719,408a148.26,148.26,0,0,0-20.26,3c-2.75.64-10.25,3-10.47,3.35s-.56-2.93-.56-2.93a107.16,107.16,0,0,0,11.3-3.87c5.08-2.16,16.73-8,18.22-8.57s14.55-6.37,16.44-6.72c0,0-6.47-1.26-12,.52s-14.82,4.87-17.83,6.75-16.16,10.37-16.16,10.37l-.65-7.21s11.55-3.68,14.25-5.22,13.64-8.46,16.91-10.28,11.69-7.42,11.69-7.42-14.61,3.32-17.63,4.63-13.76,8.26-15.85,9.88-9.52,7.19-9.52,7.19l-.62-7a8.91,8.91,0,0,0,5.56-2.56c2.78-2.57,9.79-8.79,11-9.25s11-6,12.07-6.73,7.85-5.44,8.08-5.61-15.22,4.52-18.31,6.44-13.43,7.37-18.6,16.08l-.86-6.53a55.16,55.16,0,0,1,12-12.37c6.91-4.83,18.91-14.32,20.71-17.52,0,0-8.93,2.69-13.2,5.53s-12.4,11-14.28,13.81-6,8.65-6,8.65l-.12-1.92s10.6-19,12.46-22.31,10.09-17.39,10.92-17.62a48.09,48.09,0,0,0-10.53,10.28c-4.37,6.09-12.19,23.52-12.5,25.3a11.56,11.56,0,0,1,.56-4.45c.76-2,3.11-10.37,3.82-12.53s3-12.4,4-16.12,3.47-12.26,3.47-12.26a56.14,56.14,0,0,0-7.66,14.07c-3.21,8.52-5.54,27.45-5.53,29.32,0,0-.37-18.4-.9-19.81s-.18-13.57,0-14.95.2-17.36.2-17.36-5,14-5.66,20.44,2.54,25.33,4.82,32.8c0,0-4.85-9.7-7.07-12.69-3.42-4.63-7.79-10.81-9.21-12.3s-7.46-9-17.11-13.26c0,0,12.53,13.51,14.56,17.81s15.4,22.76,20,24.76l.47,3.06s-14.94-13.61-18.9-18.07-9.68-10.74-12.33-12.19-9.71-5-9.71-5,4,4.44,6.56,7,13.19,17,16.27,18.44,15.3,10.24,18.33,11.38l.84,6.13a87.61,87.61,0,0,0-10.16-7.89c-4.55-2.83-22-15.62-24.45-16.82s-11.51-6.76-11.51-6.76,8.76,9.13,12.62,12.19,12.81,13.85,33.72,20.58l.47,5.51s-13.49-7.62-18.87-9.92-28.82-15-31.79-15.63c0,0,7.65,6.72,9.15,7.75s10.77,8.83,17.79,11,23.81,8.09,23.81,8.09l.36,4.06s-18.45-7.75-21.5-8.54a73.77,73.77,0,0,1-10.54-3.49c-1.76-.94-19.58-5.94-21.51-6.11,0,0,21.85,12.6,28.73,14.56,3.08.88,17.52,5.24,24.94,5.25l.63,5.69s-17-6.68-22-7.78-24.87-6.27-32.67-5.71c0,0,20.09,8.53,28,10s26.81,4.71,26.81,4.71l.31,2.66s-20.55-3.7-29.13-4.17-23.12-.45-23.12-.45,11.79,4.16,18.79,5.95c12.17,3.11,30.88.41,33.55,0l.35,1.89A131.94,131.94,0,0,1,665,422.73c-14,1.36-21.18,6.52-21.18,6.52s22.23,3.55,43.68-8.31l.18.95s-11,6.39-13.58,9-11.3,10.66-11.3,10.66,9.58-3.71,15.26-7.58,10.1-10.76,10.1-10.76S695.68,459.49,698.29,463.58Z" style="fill:#636FA4"></path><path d="M698.29,463.58c.49.76,2.53.39,2.53-.76s-10.49-35.3-12-43.14a39.16,39.16,0,0,1,6.25,1.57c3.06,1.07,11.87,5.14,15.35,5.5s10.7,0,12.77.14c0,0-12.88-5.43-14.52-5.88s-8.72-2.66-11.31-2.65-8.77.19-8.77.19l-.38-2.42a9.08,9.08,0,0,1,5.57-.83c2.76.65,12.48.57,16.93-.6s15.86-2.92,21.07-5.93A46,46,0,0,0,719,408a148.26,148.26,0,0,0-20.26,3c-2.75.64-10.25,3-10.47,3.35s-.56-2.93-.56-2.93a107.16,107.16,0,0,0,11.3-3.87c5.08-2.16,16.73-8,18.22-8.57s14.55-6.37,16.44-6.72c0,0-6.47-1.26-12,.52s-14.82,4.87-17.83,6.75-16.16,10.37-16.16,10.37l-.65-7.21s11.55-3.68,14.25-5.22,13.64-8.46,16.91-10.28,11.69-7.42,11.69-7.42-14.61,3.32-17.63,4.63-13.76,8.26-15.85,9.88-9.52,7.19-9.52,7.19l-.62-7a8.91,8.91,0,0,0,5.56-2.56c2.78-2.57,9.79-8.79,11-9.25s11-6,12.07-6.73,7.85-5.44,8.08-5.61-15.22,4.52-18.31,6.44-13.43,7.37-18.6,16.08l-.86-6.53a55.16,55.16,0,0,1,12-12.37c6.91-4.83,18.91-14.32,20.71-17.52,0,0-8.93,2.69-13.2,5.53s-12.4,11-14.28,13.81-6,8.65-6,8.65l-.12-1.92s10.6-19,12.46-22.31,10.09-17.39,10.92-17.62a48.09,48.09,0,0,0-10.53,10.28c-4.37,6.09-12.19,23.52-12.5,25.3a11.56,11.56,0,0,1,.56-4.45c.76-2,3.11-10.37,3.82-12.53s3-12.4,4-16.12,3.47-12.26,3.47-12.26a56.14,56.14,0,0,0-7.66,14.07c-3.21,8.52-5.54,27.45-5.53,29.32,0,0-.37-18.4-.9-19.81s-.18-13.57,0-14.95.2-17.36.2-17.36-5,14-5.66,20.44,2.54,25.33,4.82,32.8c0,0-4.85-9.7-7.07-12.69-3.42-4.63-7.79-10.81-9.21-12.3s-7.46-9-17.11-13.26c0,0,12.53,13.51,14.56,17.81s15.4,22.76,20,24.76l.47,3.06s-14.94-13.61-18.9-18.07-9.68-10.74-12.33-12.19-9.71-5-9.71-5,4,4.44,6.56,7,13.19,17,16.27,18.44,15.3,10.24,18.33,11.38l.84,6.13a87.61,87.61,0,0,0-10.16-7.89c-4.55-2.83-22-15.62-24.45-16.82s-11.51-6.76-11.51-6.76,8.76,9.13,12.62,12.19,12.81,13.85,33.72,20.58l.47,5.51s-13.49-7.62-18.87-9.92-28.82-15-31.79-15.63c0,0,7.65,6.72,9.15,7.75s10.77,8.83,17.79,11,23.81,8.09,23.81,8.09l.36,4.06s-18.45-7.75-21.5-8.54a73.77,73.77,0,0,1-10.54-3.49c-1.76-.94-19.58-5.94-21.51-6.11,0,0,21.85,12.6,28.73,14.56,3.08.88,17.52,5.24,24.94,5.25l.63,5.69s-17-6.68-22-7.78-24.87-6.27-32.67-5.71c0,0,20.09,8.53,28,10s26.81,4.71,26.81,4.71l.31,2.66s-20.55-3.7-29.13-4.17-23.12-.45-23.12-.45,11.79,4.16,18.79,5.95c12.17,3.11,30.88.41,33.55,0l.35,1.89A131.94,131.94,0,0,1,665,422.73c-14,1.36-21.18,6.52-21.18,6.52s22.23,3.55,43.68-8.31l.18.95s-11,6.39-13.58,9-11.3,10.66-11.3,10.66,9.58-3.71,15.26-7.58,10.1-10.76,10.1-10.76S695.68,459.49,698.29,463.58Z" style="opacity:0.6000000000000001"></path><path d="M115,470.17c-.53.44-.06,1.95.81,1.84s25.75-11.29,31.54-13.2a29.46,29.46,0,0,1-.59,4.89c-.53,2.41-2.77,9.48-2.71,12.15s1,8.1,1.1,9.68c0,0,2.89-10.27,3.08-11.55s1.19-6.87.93-8.82-1-6.63-1-6.63L150,458a6.94,6.94,0,0,1,1.16,4.14,41.47,41.47,0,0,0,2.06,12.77c1.31,3.26,3.72,11.74,6.49,15.41a35,35,0,0,0-.6-9.77,114.67,114.67,0,0,0-4.17-15.07,64.9,64.9,0,0,0-3.54-7.62c-.26-.14,2.17-.7,2.17-.7a82.63,82.63,0,0,0,4,8.2c2.11,3.64,7.65,11.91,8.21,13s6.2,10.41,6.65,11.82a21.16,21.16,0,0,0-1.53-9.06c-1.87-4-5.09-10.75-6.8-12.86S154.72,457,154.72,457l5.4-1.18s3.88,8.41,5.3,10.3,7.7,9.54,9.4,11.84,6.72,8.16,6.72,8.16-3.9-10.76-5.17-12.92a117.59,117.59,0,0,0-9-11.07c-1.42-1.43-6.35-6.54-6.35-6.54l5.22-1.13a6.82,6.82,0,0,0,2.47,4c2.21,1.86,7.58,6.58,8.05,7.47s5.61,7.77,6.24,8.51,4.87,5.43,5,5.59-4.87-11.1-6.61-13.26-6.86-9.48-13.95-12.57l4.87-1.27a42,42,0,0,1,10.5,7.94c4.32,4.77,12.64,13,15.24,14,0,0-2.88-6.51-5.44-9.47a61.44,61.44,0,0,0-11.81-9.51c-2.3-1.16-7.13-3.72-7.13-3.72l1.45-.28,18.08,7.32c2.69,1.09,14.13,6,14.38,6.61a36.46,36.46,0,0,0-8.79-7c-5-2.74-19-7-20.35-7.07a8.85,8.85,0,0,1,3.43,0c1.58.4,8.15,1.38,9.85,1.71s9.69,1.13,12.59,1.47,9.62,1.47,9.62,1.47a43,43,0,0,0-11.38-4.48c-6.77-1.62-21.33-1.59-22.74-1.4,0,0,13.9-2,14.92-2.56s10.26-1.42,11.32-1.42,13.18-1.5,13.18-1.5-11.06-2.44-16-2.34-19,4.32-24.4,6.76a109,109,0,0,0,8.95-6.56c3.18-3,7.44-6.93,8.44-8.15s6.1-6.5,8.42-14.22c0,0-9,10.77-12.11,12.72s-15.78,13.83-16.86,17.5l-2.27.66s8.89-12.61,11.9-16,7.21-8.35,8.06-10.49,2.88-7.84,2.88-7.84-3,3.49-4.71,5.64-11.62,11.6-12.43,14.07-6.3,12.57-6.88,15l-4.56,1.22a68.64,68.64,0,0,0,5-8.44c1.71-3.72,9.75-18.18,10.42-20.13s4-9.35,4-9.35-6.09,7.5-8,10.71-9.28,11-12.4,27.49l-4.13.89s4.5-10.94,5.73-15.24,8.6-23.25,8.83-25.56c0,0-4.37,6.43-5,7.66s-5.67,9-6.66,14.52-3.88,18.8-3.88,18.8l-3,.66s4.12-14.71,4.43-17.1a57.83,57.83,0,0,1,1.64-8.31,159.16,159.16,0,0,0,2.59-16.87s-7.47,17.74-8.3,23.14c-.38,2.42-2.31,13.77-1.62,19.39l-4.25,1s3.46-13.47,3.81-17.4,2.39-19.44,1.23-25.3c0,0-4.56,16-4.89,22.15s-1,20.76-1,20.76l-2,.48s.86-15.91.4-22.46-1.85-17.55-1.85-17.55-2,9.32-2.72,14.79c-1.2,9.52,2.61,23.43,3.17,25.42l-1.41.45a100.05,100.05,0,0,1-5-16.46c-2.36-10.48-7-15.43-7-15.43A57.19,57.19,0,0,0,146.3,458l-.7.23s-5.88-7.74-8.1-9.44-9.14-7.55-9.14-7.55a72,72,0,0,0,7.18,10.84,33.2,33.2,0,0,0,9.11,6.63S117.87,467.81,115,470.17Z" style="fill:#636FA4"></path><path d="M115,470.17c-.53.44-.06,1.95.81,1.84s25.75-11.29,31.54-13.2a29.46,29.46,0,0,1-.59,4.89c-.53,2.41-2.77,9.48-2.71,12.15s1,8.1,1.1,9.68c0,0,2.89-10.27,3.08-11.55s1.19-6.87.93-8.82-1-6.63-1-6.63L150,458a6.94,6.94,0,0,1,1.16,4.14,41.47,41.47,0,0,0,2.06,12.77c1.31,3.26,3.72,11.74,6.49,15.41a35,35,0,0,0-.6-9.77,114.67,114.67,0,0,0-4.17-15.07,64.9,64.9,0,0,0-3.54-7.62c-.26-.14,2.17-.7,2.17-.7a82.63,82.63,0,0,0,4,8.2c2.11,3.64,7.65,11.91,8.21,13s6.2,10.41,6.65,11.82a21.16,21.16,0,0,0-1.53-9.06c-1.87-4-5.09-10.75-6.8-12.86S154.72,457,154.72,457l5.4-1.18s3.88,8.41,5.3,10.3,7.7,9.54,9.4,11.84,6.72,8.16,6.72,8.16-3.9-10.76-5.17-12.92a117.59,117.59,0,0,0-9-11.07c-1.42-1.43-6.35-6.54-6.35-6.54l5.22-1.13a6.82,6.82,0,0,0,2.47,4c2.21,1.86,7.58,6.58,8.05,7.47s5.61,7.77,6.24,8.51,4.87,5.43,5,5.59-4.87-11.1-6.61-13.26-6.86-9.48-13.95-12.57l4.87-1.27a42,42,0,0,1,10.5,7.94c4.32,4.77,12.64,13,15.24,14,0,0-2.88-6.51-5.44-9.47a61.44,61.44,0,0,0-11.81-9.51c-2.3-1.16-7.13-3.72-7.13-3.72l1.45-.28,18.08,7.32c2.69,1.09,14.13,6,14.38,6.61a36.46,36.46,0,0,0-8.79-7c-5-2.74-19-7-20.35-7.07a8.85,8.85,0,0,1,3.43,0c1.58.4,8.15,1.38,9.85,1.71s9.69,1.13,12.59,1.47,9.62,1.47,9.62,1.47a43,43,0,0,0-11.38-4.48c-6.77-1.62-21.33-1.59-22.74-1.4,0,0,13.9-2,14.92-2.56s10.26-1.42,11.32-1.42,13.18-1.5,13.18-1.5-11.06-2.44-16-2.34-19,4.32-24.4,6.76a109,109,0,0,0,8.95-6.56c3.18-3,7.44-6.93,8.44-8.15s6.1-6.5,8.42-14.22c0,0-9,10.77-12.11,12.72s-15.78,13.83-16.86,17.5l-2.27.66s8.89-12.61,11.9-16,7.21-8.35,8.06-10.49,2.88-7.84,2.88-7.84-3,3.49-4.71,5.64-11.62,11.6-12.43,14.07-6.3,12.57-6.88,15l-4.56,1.22a68.64,68.64,0,0,0,5-8.44c1.71-3.72,9.75-18.18,10.42-20.13s4-9.35,4-9.35-6.09,7.5-8,10.71-9.28,11-12.4,27.49l-4.13.89s4.5-10.94,5.73-15.24,8.6-23.25,8.83-25.56c0,0-4.37,6.43-5,7.66s-5.67,9-6.66,14.52-3.88,18.8-3.88,18.8l-3,.66s4.12-14.71,4.43-17.1a57.83,57.83,0,0,1,1.64-8.31,159.16,159.16,0,0,0,2.59-16.87s-7.47,17.74-8.3,23.14c-.38,2.42-2.31,13.77-1.62,19.39l-4.25,1s3.46-13.47,3.81-17.4,2.39-19.44,1.23-25.3c0,0-4.56,16-4.89,22.15s-1,20.76-1,20.76l-2,.48s.86-15.91.4-22.46-1.85-17.55-1.85-17.55-2,9.32-2.72,14.79c-1.2,9.52,2.61,23.43,3.17,25.42l-1.41.45a100.05,100.05,0,0,1-5-16.46c-2.36-10.48-7-15.43-7-15.43A57.19,57.19,0,0,0,146.3,458l-.7.23s-5.88-7.74-8.1-9.44-9.14-7.55-9.14-7.55a72,72,0,0,0,7.18,10.84,33.2,33.2,0,0,0,9.11,6.63S117.87,467.81,115,470.17Z" style="opacity:0.6000000000000001"></path></g></svg>
